<svg version="1.1" id="Lager_1" xmlns="http://www.w3.org/2000/svg" xmlns:xlink="http://www.w3.org/1999/xlink" x="0px" y="0px"
	 viewBox="0 0 595.3 595.3" style="enable-background:new 0 0 595.3 595.3;" xml:space="preserve">
<g>
	<path d="M78.8,272.7c-0.6-17.6,11.2-28.7,23.5-32.6c14.4-4.6,27.6-2.1,39.2,7.8c0.9,0.8,1.7,1.6,2.4,2.5c1.8,2.3,1.7,4.2-0.3,6.3
		c-2,2-4.4,3.7-6.9,5.2c-1.4,0.8-2.9,0.8-4.3,0c-0.9-0.5-1.8-1.2-2.6-1.9c-7.6-6-15.9-7-24.6-3.1c-6.3,2.8-9.6,7.8-9.6,14.9
		c0.1,15.1,0.2,29.2,0,44.2c-0.2,10.9,7.2,15.8,14.7,17.3c6.7,1.4,12.7,0,17.6-5c2.7-2.8,4.3-6.1,4.5-10c0.2-3.8,0.2-7.2,0.1-11.1
		c-0.1-3.1-1.5-4.3-4.7-4.4c-3.3-0.1-6.6,0-9.9,0c-4.9,0-6.6-1.7-6.6-6.5c0-1.7,0-3.4,0-5.1c0.1-3.6,1.8-5.3,5.4-5.4
		c5.3-0.1,10.7,0,16,0c3.7,0,7.5,0,11.2,0c3.8,0.1,5.5,1.8,5.5,5.5c0.1,9.3,0.2,18.1,0,27.4c-0.3,14.4-11.1,27.6-25.9,30.8
		c-15,3.3-28.1-0.8-38.2-12.8c-4.6-5.5-6.4-12-6.4-19c-0.1-8.1,0-15.8,0-23.9C78.9,286.7,79.1,279.9,78.8,272.7z"/>
	<path d="M197.7,247.6c0-1.1,0-2.1,0-3.2c0.2-3.5,2.1-5.3,5.5-5.3c6-0.1,12,0,17.9,0c3.9,0,7.9-0.1,11.8,0.1
		c14.6,0.5,27.9,11.4,31.1,25.2c0.3,1.4,0.6,2.7,0.6,4.1c0.3,8.3,0.9,16.7-0.5,24.9c-1.4,8.2-5.3,15-12,20.1c-0.3,0.3-0.7,0.5-1,0.8
		c-2.4,2.2-2.6,3.7-1,6.5c4,7.2,8,14.4,12,21.5c0.2,0.4,0.4,0.8,0.6,1.1c1.9,2.3-0.3,5.2-2.7,5.4c-3.4,0.2-6.8,0.4-10.2-0.1
		c-2.6-0.3-4.4-2.1-5.5-4.4c-3.4-6.6-6.7-13.1-10.1-19.7c-0.4-0.9-0.8-1.7-1.3-2.6c-1.5-2.4-3.6-3.9-6.6-3.8c-2.1,0-4.3,0-6.4,0
		c-3.6,0.1-5.3,1.7-5.3,5.3c-0.1,6.3,0,12.6,0,18.9c0,4.6-1.8,6.4-6.4,6.4c-1.7,0-3.4,0.1-5.1,0c-3.2-0.2-5.1-2-5.3-5.3
		c-0.1-1.1,0-2.1,0-3.2c0-15.5,0-31,0-46.4C197.7,278.5,197.7,263.1,197.7,247.6z M214.5,278.6c0,6.1-0.1,12.2,0,18.2
		c0,3.3,1.7,4.9,4.9,5c5.2,0.1,10.4,0.1,15.7,0c5.4-0.1,9-2.9,11.2-7.6c0.5-1.1,0.9-2.4,1.1-3.6c1.1-6.9,0.7-13.8,0.3-20.7
		c-0.2-3.8-2.2-6.8-5-9.4c-2.6-2.4-5.7-3.7-9.1-4.3c-4.4-0.9-8.9-0.5-13.4-0.6c-4.3,0-5.8,1.5-5.8,5.8
		C214.5,267.1,214.5,272.8,214.5,278.6L214.5,278.6z"/>
	<path d="M337.9,326.6c-3.6,0-5.5,1.5-6.4,5c-1,3.9-1.9,7.9-2.9,11.8c-1,4-3,5.5-7,5.6c-2.2,0-4.5,0.1-6.7,0c-3.4-0.1-5-2.2-4.1-5.6
		c3.5-13.2,7.1-26.4,10.7-39.6c5.2-19.1,10.5-38.3,15.7-57.4c0.3-0.9,0.4-1.9,0.8-2.8c1.1-2.8,3.1-4.5,6.3-4.6c2.9,0,5.8,0,8.6,0
		c4.2,0,6.4,1.7,7.6,5.9c1.7,6.3,3.5,12.6,5.2,18.8c6.9,25.3,13.8,50.7,20.7,76c0.4,1.4,0.9,2.9,1.1,4.3c0.4,2.4-1,4.6-3.5,4.7
		c-3.1,0.2-6.2,0.3-9.3,0c-2.7-0.2-4.4-2.1-5-4.7c-1-3.7-1.8-7.5-2.8-11.2c-0.2-0.8-0.4-1.7-0.7-2.5c-1-2.5-2.8-4-5.6-4
		c-4,0-7.9,0-11.9,0C345.1,326.6,341.5,326.5,337.9,326.6z M348.9,310.1c2.5,0,4.9,0.1,7.4,0c2.8-0.1,4.2-1.9,3.8-4.7
		c-0.1-0.5-0.2-1-0.4-1.6c-2.9-11.7-5.7-23.4-8.6-35.1c-0.2-0.6-0.3-1.3-0.6-1.8c-0.7-1.4-2.2-1.4-3,0c-0.4,0.6-0.5,1.4-0.7,2.1
		c-0.5,1.9-0.9,3.7-1.3,5.6c-2.4,9.6-4.8,19.2-7.1,28.9c-1.3,5.2-0.2,6.7,5.1,6.7C345.3,310.1,347.1,310.1,348.9,310.1L348.9,310.1z
		"/>
	<path d="M517.6,340.9c0,1,0,1.9,0,2.9c-0.2,2.9-1.9,4.9-4.7,5.1c-2.3,0.2-4.7,0.2-7,0c-2.9-0.2-4.7-2-5-4.9
		c-0.1-1.1-0.1-2.1-0.1-3.2c0-13.5,0-28.2,0-41.7c0-1.1,0-2.1-0.1-3.2c0-0.6,0.1-2.2-0.9-2.5c-1.3-0.3-1.3,1.5-1.6,2.1
		c-0.4,1.1-0.7,2.2-1,3.4c-3.4,13.8-6.8,28.9-10.2,42.7c-0.2,0.8-0.4,1.7-0.7,2.5c-1.1,2.7-3.1,4.3-6.1,4.3c-2.2,0-4.5,0-6.7,0
		c-3.7-0.1-5.9-1.8-6.8-5.5c-2.4-9.4-4.6-18.9-7-28.3c-1.2-5-2.5-11.3-3.7-16.3c-0.1-0.2-0.1-0.4-0.1-0.6c-0.5-1.2-0.8-4.5-2.2-4.2
		c-1.9,0.3-1.2,3.5-1.3,4.8c-0.1,0.8,0,1.7,0,2.6c0,13.3,0,28,0,41.4c0,5-1.7,6.7-6.7,6.8c-1.7,0-3.4,0.1-5.1-0.1
		c-2.9-0.2-4.7-2-5-4.9c-0.1-1-0.1-1.9-0.1-2.9c0-31.4,0-62.8,0-94.2c0-5.1,0.9-8.4,7.9-7.9c2.3,0.2,4.7,0,7,0
		c4.2,0,6.2,1.5,7.4,5.6c1.3,4.7,2.6,9.5,3.9,14.2c4.2,15.2,8.3,30.5,12.5,45.7c0.2,0.7,0.4,1.4,0.6,2.2c0.3,1.1,0.7,3.5,2,3.4
		c1.4,0,1.6-2.5,2-3.5c0.3-0.7,0.4-1.4,0.6-2.1c5.2-19.2,10.4-38.3,15.7-57.5c0.4-1.3,0.7-2.7,1.2-4c1-2.5,2.8-4,5.6-4
		c3.5,0,7-0.1,10.6,0c3.5,0.1,5.2,1.8,5.3,5.4c0.1,4.5,0,9,0,13.5c0,12.1,0,24.1,0,36.2C517.6,309.7,517.6,325.3,517.6,340.9z"/>
</g>
<g>
	<path d="M154.3,386.4l23-16.9l4.6,6.2l-2.2,1.6l-3-4.1l-8.2,6l2.1,2.8l-2.1,1.6l-2.1-2.8l-10.5,7.7L154.3,386.4z"/>
	<path d="M179.7,380.3c2.5-2.1,4.6-2,6.6,0.2c2,2.3,1.7,4.5-0.7,6.6l-14.7,12.7c-2.5,2.1-4.7,2-6.6-0.2c-1.9-2.3-1.7-4.4,0.8-6.6
		L179.7,380.3z M183.8,385.1c1.1-1,1.2-1.9,0.4-2.8c-0.8-0.9-1.7-0.9-2.9,0L166.7,395c-1.1,1-1.3,1.9-0.5,2.9
		c0.8,0.9,1.8,0.9,2.9-0.1L183.8,385.1z"/>
	<path d="M187.8,389.5c2.3-2.3,4.5-2.4,6.6-0.3c2.1,2.1,2.1,4.3-0.2,6.6l-13.6,13.9c-2.3,2.3-4.5,2.4-6.6,0.3
		c-2.1-2.1-2.1-4.3,0.2-6.6L187.8,389.5z M192.3,393.9c1-1,1.1-2,0.2-2.9c-0.9-0.9-1.8-0.8-2.8,0.3l-13.6,13.9
		c-1.1,1.1-1.1,2-0.3,2.9c0.9,0.9,1.9,0.8,2.9-0.3L192.3,393.9z"/>
	<path d="M181.5,416.6l18.2-22l3.4,2.8c1.2,1,1.8,2,1.8,3.2c0,1.1-0.5,2.3-1.4,3.5l-12,14.5c-2.1,2.5-4.2,2.8-6.6,0.9L181.5,416.6z
		 M201.4,402.4c0.5-0.6,0.7-1.1,0.7-1.6c0-0.5-0.2-1-0.7-1.3l-1.4-1.1l-14.8,17.9l1.4,1.1c1,0.8,1.9,0.6,2.9-0.5L201.4,402.4z"/>
	<path d="M208.4,435.4c-0.2,0-0.5,0-0.7-0.1c-0.3-0.1-0.6-0.2-0.9-0.4c-0.4-0.2-0.6-0.5-0.8-0.8c-0.2-0.3-0.3-0.6-0.4-0.9
		c-0.5,0.1-1,0-1.6-0.1c-0.5-0.2-1.1-0.4-1.6-0.8c-0.8-0.5-1.4-1-1.8-1.6c-0.4-0.5-0.6-1.1-0.6-1.7c0-0.6,0.1-1.3,0.4-2
		s0.7-1.5,1.2-2.3l1-1.7c0.4-0.7,0.8-1.2,1.2-1.7c0.4-0.5,0.9-0.9,1.3-1.3c0.5-0.4,1-0.7,1.6-1c0.6-0.3,1.2-0.6,2-0.9
		c0.2-1.2,0.5-2.2,0.7-2.9c0.2-0.8,0.4-1.4,0.6-1.9c0.2-0.5,0.4-0.9,0.6-1.3c0.2-0.4,0.4-0.7,0.6-1.1l0.9-1.5
		c0.9-1.4,1.8-2.3,2.6-2.6c0.9-0.3,1.9-0.1,3,0.6c0.6,0.4,1,0.8,1.3,1.2c0.3,0.4,0.4,0.9,0.4,1.4c0,0.5-0.1,1-0.3,1.6
		c-0.2,0.5-0.5,1.1-0.8,1.7l-1.1,1.7c-0.4,0.6-0.8,1.2-1.3,1.7c-0.5,0.5-1,0.9-1.5,1.3c-0.5,0.4-1.1,0.7-1.8,1
		c-0.6,0.3-1.3,0.6-2,0.9l-2.1,9.7c0.5-0.4,1.1-0.9,1.5-1.5c0.5-0.6,0.9-1.2,1.3-1.8l0.6-0.9l1.7,1.1l-0.6,1
		c-0.7,1.1-1.4,2.1-2.2,2.9c-0.8,0.9-1.7,1.5-2.7,2c0,0.1,0.1,0.2,0.2,0.4c0.1,0.1,0.2,0.2,0.4,0.3c0.4,0.3,0.8,0.3,1.1,0.2
		L208.4,435.4z M208,421c-0.3,0.2-0.7,0.3-0.9,0.5c-0.3,0.2-0.5,0.4-0.8,0.7c-0.2,0.3-0.5,0.6-0.8,0.9c-0.3,0.4-0.5,0.8-0.8,1.3
		l-1.1,1.7c-0.7,1.1-1,1.9-1,2.6c0,0.6,0.4,1.2,1.2,1.7c0.7,0.5,1.4,0.6,2,0.5L208,421z M212.8,412.3c-0.5,0.7-0.8,1.5-1.1,2.4
		c-0.3,0.8-0.5,1.7-0.7,2.6c0.8-0.3,1.6-0.7,2.4-1.3c0.8-0.5,1.5-1.3,2.1-2.3l0.8-1.2c0.4-0.6,0.6-1.1,0.6-1.6
		c0.1-0.5-0.1-0.9-0.6-1.1c-0.5-0.3-0.9-0.4-1.3-0.2c-0.4,0.2-0.8,0.6-1.2,1.2L212.8,412.3z"/>
	<path d="M224.9,443.9l5.4-12.1l-3.4-1.5l-5.4,12.1l-2.4-1.1l11.6-26l2.4,1.1l-5.2,11.6l3.4,1.5l5.2-11.6l2.4,1.1l-11.6,26
		L224.9,443.9z"/>
	<path d="M240.3,424.3c1.1-3.1,3-4.1,5.8-3.1c2.8,1,3.7,3,2.7,6.1l-6.4,18.4c-1.1,3.1-3,4.1-5.8,3.1c-2.8-1-3.7-3-2.6-6L240.3,424.3
		z M246.2,426.4c0.5-1.4,0.1-2.3-1.1-2.7c-1.2-0.4-2,0.1-2.5,1.5l-6.4,18.4c-0.5,1.4-0.2,2.3,1,2.7c1.2,0.4,2-0.1,2.5-1.5
		L246.2,426.4z"/>
	<path d="M259.2,425.3l2.6,0.6l-5.9,23.3c-0.8,3.1-2.6,4.3-5.5,3.6c-2.9-0.7-3.9-2.7-3.1-5.8l5.9-23.3l2.6,0.6l-5.9,23.3
		c-0.4,1.5,0,2.3,1.2,2.6c1.2,0.3,2-0.3,2.3-1.7L259.2,425.3z"/>
	<path d="M267.4,447.4c0.1-0.4,0.1-0.8,0.1-1.1c0-0.3,0-0.5,0-0.7c0-0.2-0.1-0.4-0.2-0.6c-0.1-0.2-0.2-0.4-0.3-0.6
		c-0.3-0.5-0.6-0.9-0.8-1.3c-0.3-0.4-0.6-0.8-0.9-1.2c-0.3-0.4-0.6-0.8-0.9-1.3s-0.6-1-1-1.5c-0.4-0.6-0.6-1.2-0.5-1.8
		c0-0.6,0.1-1.3,0.2-2.1l0.7-4.2c0.5-3.1,2.2-4.4,5.1-3.9c1.6,0.3,2.6,0.8,3.1,1.7c0.5,0.9,0.6,2.1,0.4,3.7l-0.8,5.1l-2.4-0.4
		l0.8-4.8c0.1-0.7,0.1-1.3-0.1-1.8c-0.2-0.5-0.6-0.8-1.3-0.9c-1.2-0.2-1.9,0.4-2.1,1.7l-0.7,4.2c-0.1,0.6-0.1,1-0.1,1.3
		c0,0.3,0.2,0.6,0.4,1c0.5,1,1.1,1.9,1.7,2.6c0.6,0.8,1.2,1.7,1.8,2.6c0.2,0.3,0.4,0.7,0.5,1c0.1,0.3,0.2,0.7,0.2,1
		c0,0.4,0,0.8,0,1.2c0,0.4-0.1,0.9-0.2,1.5l-0.7,4c-0.2,1.5-0.8,2.6-1.6,3.3c-0.8,0.7-2,0.9-3.6,0.6c-1.5-0.2-2.6-0.8-3.1-1.7
		c-0.6-0.9-0.7-2.1-0.5-3.6l1-6l2.5,0.4l-0.9,5.6c-0.1,0.7-0.1,1.3,0.1,1.8c0.2,0.5,0.6,0.8,1.3,0.9c0.7,0.1,1.2,0,1.5-0.3
		c0.3-0.3,0.6-0.8,0.7-1.5L267.4,447.4z"/>
	<path d="M273.8,456.7l2.4-28.4l7.5,0.6l-0.2,2.7l-4.9-0.4l-0.8,10l3.5,0.3l-0.2,2.6l-3.5-0.3l-0.9,10.6l5.1,0.4l-0.2,2.6
		L273.8,456.7z"/>
	<path d="M293.1,457.7l0.2-13.2l-3.7-0.1l-0.2,13.2l-2.6,0l0.5-28.5l2.6,0l-0.2,12.7l3.7,0.1l0.2-12.7l2.6,0l-0.5,28.5L293.1,457.7z
		"/>
	<path d="M299.1,433.5c-0.3-3.2,1.1-5,4.1-5.2c3-0.3,4.6,1.2,4.9,4.5l1.6,19.4c0.3,3.2-1.1,5-4.1,5.2c-3,0.2-4.6-1.2-4.9-4.5
		L299.1,433.5z M305.4,433c-0.1-1.4-0.8-2.1-2-2c-1.2,0.1-1.8,0.9-1.7,2.3l1.6,19.4c0.1,1.5,0.8,2.2,2,2.1c1.2-0.1,1.8-0.9,1.7-2.4
		L305.4,433z"/>
	<path d="M315.3,456l-4.6-28.2l2.6-0.4l4.2,25.6l5-0.8l0.4,2.6L315.3,456z"/>
	<path d="M327.6,453.8l-6.8-27.7l4.3-1.1c1.5-0.4,2.7-0.2,3.6,0.4c0.9,0.7,1.6,1.7,1.9,3.2l4.5,18.2c0.8,3.1-0.3,5.1-3.2,5.8
		L327.6,453.8z M328,429.4c-0.2-0.7-0.5-1.2-0.9-1.5c-0.4-0.3-0.9-0.4-1.5-0.2l-1.7,0.4l5.6,22.6l1.7-0.4c1.2-0.3,1.6-1.2,1.3-2.6
		L328,429.4z"/>
	<path d="M348.3,447.8L338,421.2l4.1-1.6c1.5-0.6,2.8-0.7,3.9-0.2s1.9,1.5,2.5,3.2l1.7,4.4c0.7,1.7,0.8,3,0.3,4.1
		c-0.4,1-1.4,1.9-3,2.5l-1.7,0.7l4.9,12.6L348.3,447.8z M346.1,423.6c-0.3-0.8-0.7-1.3-1.2-1.6c-0.5-0.3-1.1-0.2-1.9,0.1l-1.7,0.7
		l3.5,9.1l1.7-0.7c0.7-0.3,1.2-0.7,1.4-1.2c0.2-0.5,0.1-1.2-0.2-2L346.1,423.6z"/>
	<path d="M367.6,439.4c-1.3-1.9-2.5-3.7-3.7-5.4c-1.2-1.8-2.5-3.5-3.8-5.3c-0.1,0.1-0.2,0.1-0.3,0.2c-0.1,0-0.2,0.1-0.3,0.1
		l-1.3,0.6l5.7,11.6l-2.4,1.2l-12.6-25.6l3.9-1.9c1.5-0.7,2.8-0.9,3.9-0.6c1.1,0.3,2,1.3,2.9,3l2.5,5.1c0.9,1.9,0.9,3.4,0,4.7
		c1.4,1.9,2.8,3.7,4.2,5.5c1.3,1.8,2.7,3.7,4,5.5L367.6,439.4z M357.3,418.8c-0.5-0.9-0.9-1.5-1.4-1.8c-0.5-0.2-1.1-0.2-1.9,0.3
		l-1.5,0.8l4.7,9.4l1.6-0.8c0.7-0.4,1.2-0.8,1.3-1.3c0.1-0.5,0-1.1-0.3-1.8L357.3,418.8z"/>
	<path d="M361.7,415.4c-1.7-2.8-1.2-4.9,1.3-6.5c2.6-1.6,4.7-0.9,6.4,1.8l10,16.7c1.7,2.8,1.2,4.9-1.4,6.5c-2.6,1.5-4.7,0.9-6.3-1.8
		L361.7,415.4z M367.1,412.2c-0.8-1.2-1.7-1.5-2.7-0.9c-1,0.6-1.2,1.6-0.4,2.8l10,16.7c0.8,1.3,1.7,1.6,2.7,1
		c1.1-0.6,1.2-1.6,0.4-2.9L367.1,412.2z"/>
	<path d="M386.3,428.3l-16.8-23.1l3.6-2.6c1.2-0.9,2.4-1.2,3.5-0.9c1.1,0.3,2.1,1,3,2.3l11,15.2c1.9,2.6,1.6,4.8-0.8,6.6
		L386.3,428.3z M377.5,405.5c-0.4-0.6-0.9-0.9-1.4-1.1c-0.5-0.1-1,0-1.5,0.3l-1.5,1.1l13.7,18.8l1.5-1.1c1-0.7,1.1-1.7,0.2-2.9
		L377.5,405.5z"/>
	<path d="M383.9,394l2-1.7l15.7,18.1c2.1,2.4,2,4.6-0.2,6.6c-2.3,1.9-4.4,1.7-6.6-0.7l-15.7-18.1l2-1.7l15.7,18.1
		c1,1.1,1.9,1.3,2.9,0.5c0.9-0.8,0.9-1.8-0.1-2.9L383.9,394z"/>
	<path d="M405.4,398.3l1.7-1.7l4.2,4.1c1.2,1.2,1.8,2.3,2,3.3s-0.3,2.1-1.4,3.1c-2.1,2.2-4.3,2.1-6.6-0.1l-13.9-13.6
		c-2.4-2.3-2.5-4.5-0.4-6.7c1.9-2,4.1-1.8,6.4,0.4l3.6,3.5l-1.7,1.7l-3.6-3.5c-0.5-0.5-1-0.8-1.5-0.9c-0.4-0.1-0.9,0.1-1.4,0.6
		c-0.9,0.9-0.8,1.9,0.3,2.9l13.9,13.6c1.1,1,2,1.1,2.9,0.2c0.5-0.5,0.6-0.9,0.6-1.4c-0.1-0.4-0.4-0.9-0.9-1.5L405.4,398.3z"/>
	<path d="M419.2,398.5l-19.8-16.6l-2,2.4l-2-1.7l5.8-6.9l2,1.7l-2,2.4l19.8,16.6L419.2,398.5z"/>
	<path d="M422.1,381c-0.4-0.3-0.7-0.5-0.9-0.6s-0.5-0.2-0.7-0.3c-0.2-0.1-0.4-0.1-0.6-0.1s-0.4,0-0.7,0c-0.5,0-1.1,0.1-1.5,0.2
		c-0.5,0.1-1,0.2-1.5,0.3c-0.5,0.1-1,0.2-1.6,0.3c-0.6,0.1-1.2,0.1-1.8,0.2c-0.7,0.1-1.3,0-1.8-0.3c-0.5-0.3-1.1-0.6-1.7-1.1
		l-3.5-2.5c-2.6-1.8-3-3.9-1.3-6.3c0.9-1.3,1.9-2,2.9-2.1c1-0.1,2.2,0.3,3.5,1.3l4.2,3l-1.4,2l-3.9-2.8c-0.6-0.4-1.1-0.7-1.6-0.7
		c-0.5-0.1-1,0.2-1.4,0.8c-0.7,1-0.5,1.9,0.6,2.7l3.4,2.5c0.5,0.4,0.9,0.6,1.1,0.7c0.3,0.1,0.6,0.1,1,0.1c1.1-0.1,2.2-0.2,3.1-0.4
		c1-0.2,2-0.3,3.2-0.4c0.4,0,0.8,0,1.1,0c0.3,0,0.7,0.1,1,0.3c0.3,0.1,0.7,0.3,1.1,0.5c0.4,0.2,0.8,0.5,1.2,0.8l3.3,2.4
		c1.2,0.9,2,1.8,2.3,2.9c0.3,1-0.1,2.2-1,3.5c-0.9,1.3-1.9,1.9-3,2c-1.1,0.1-2.2-0.3-3.5-1.2l-4.9-3.5l1.5-2.1l4.6,3.3
		c0.6,0.4,1.2,0.7,1.7,0.7c0.5,0.1,1-0.2,1.4-0.8c0.4-0.5,0.5-1,0.4-1.5s-0.5-0.9-1-1.3L422.1,381z"/>
</g>
<g>
	<path d="M160.7,197.1c-0.2-0.2-0.3-0.4-0.1-0.6l5.2-6.8c0.2-0.2,0.4-0.3,0.6-0.1l1.9,1.4c0.2,0.2,0.3,0.4,0.1,0.6l-3.2,4.2
		c-0.2,0.2-0.1,0.5,0.1,0.7l5.8,4.4c0.2,0.2,0.4,0.2,0.6-0.1l1.4-1.9c0.2-0.2,0.4-0.3,0.6-0.1l1.9,1.4c0.2,0.2,0.3,0.4,0.1,0.7
		l-1.4,1.9c-0.2,0.2-0.2,0.4,0.1,0.6l8.5,6.4c0.2,0.2,0.3,0.4,0.1,0.7l-1.4,1.9c-0.2,0.2-0.4,0.3-0.6,0.1L160.7,197.1z"/>
	<path d="M191.9,199c0.2,0.2,0.2,0.4,0,0.7l-1.6,1.7c-0.2,0.2-0.4,0.2-0.6,0L171.1,184c-0.2-0.2-0.2-0.4,0-0.6l5.1-5.4
		c0.1-0.2,0.3-0.3,0.5-0.3l1.7,0c0.2,0,0.4,0,0.6,0.2l7.9,7.4c0.2,0.1,0.3,0.3,0.2,0.6l0.1,1.7c0,0.2,0.1,0.4,0.3,0.5l8.8,6.2
		c0.2,0.2,0.3,0.4,0.1,0.6l-1.6,1.7c-0.2,0.2-0.4,0.2-0.6,0.1l-8.8-6.2c-0.2-0.2-0.4-0.1-0.6,0.1l-0.5,0.6c-0.2,0.2-0.2,0.4,0,0.6
		L191.9,199z M181.1,188.9c0.2,0.2,0.4,0.2,0.6,0l1.4-1.5c0.2-0.2,0.2-0.3,0.3-0.5c0-0.2-0.1-0.3-0.3-0.5l-5-4.6
		c-0.2-0.1-0.3-0.2-0.5-0.2c-0.2,0-0.3,0.1-0.5,0.3l-1.4,1.5c-0.2,0.2-0.2,0.4,0,0.6L181.1,188.9z"/>
	<path d="M207.2,184.6c0.2,0.2,0.2,0.5,0,0.6l-6.5,5.6c-0.2,0.2-0.4,0.2-0.6,0l-16.6-19.3c-0.2-0.2-0.2-0.4,0-0.6l6.5-5.6
		c0.2-0.2,0.4-0.2,0.6,0l1.5,1.8c0.2,0.2,0.2,0.5,0,0.6l-4,3.4c-0.2,0.2-0.2,0.4,0,0.7l4.8,5.5c0.2,0.2,0.4,0.3,0.6,0l1.8-1.6
		c0.2-0.2,0.4-0.2,0.6,0l1.5,1.8c0.2,0.2,0.2,0.5,0,0.7l-1.8,1.6c-0.2,0.2-0.3,0.4,0,0.6l4.8,5.5c0.2,0.2,0.4,0.3,0.6,0l4-3.4
		c0.2-0.2,0.5-0.2,0.6,0L207.2,184.6z"/>
	<path d="M207.7,159.9c0.2,0.3,0.1,0.5-0.1,0.6l-2,1.4c-0.3,0.2-0.4,0.1-0.6-0.1l-1.2-1.7c-0.1-0.2-0.2-0.3-0.5-0.3
		c-0.2,0-0.3,0-0.5,0.2l-1.5,1c-0.2,0.1-0.3,0.2-0.3,0.4c-0.1,0.2,0,0.4,0.1,0.5l3.9,5.6c0.1,0.2,0.2,0.3,0.5,0.3
		c0.2,0,0.4,0,0.5-0.2l3.2-2.2c0.2-0.1,0.4-0.2,0.6-0.1l1.6,0.3c0.2,0,0.4,0.1,0.5,0.3l6.2,8.9c0.1,0.2,0.2,0.4,0.1,0.6l-0.3,1.6
		c0,0.2-0.1,0.4-0.3,0.5l-4.9,3.4c-0.2,0.2-0.4,0.2-0.6,0.1l-1.7-0.3c-0.2,0-0.4-0.2-0.5-0.3l-2.3-3.4c-0.2-0.3-0.1-0.4,0.1-0.6
		l2-1.4c0.3-0.2,0.4-0.1,0.6,0.1l1.2,1.7c0.1,0.2,0.2,0.3,0.5,0.3c0.2,0,0.4,0,0.5-0.2l1.5-1c0.2-0.1,0.3-0.2,0.3-0.4
		c0-0.2,0-0.4-0.1-0.6l-3.8-5.6c-0.1-0.2-0.2-0.3-0.5-0.3c-0.2,0-0.3,0-0.5,0.2l-3.2,2.2c-0.2,0.2-0.4,0.2-0.6,0.1l-1.7-0.3
		c-0.2,0-0.4-0.2-0.5-0.3l-6.2-9c-0.1-0.2-0.2-0.4-0.1-0.6l0.3-1.7c0.1-0.2,0.1-0.3,0.4-0.5l4.9-3.4c0.2-0.1,0.4-0.2,0.6-0.2
		l1.7,0.3c0.2,0,0.4,0.1,0.5,0.3L207.7,159.9z"/>
	<path d="M211.1,151.2c-0.1-0.3-0.1-0.5,0.2-0.6l2.1-1.1c0.3-0.1,0.5-0.1,0.6,0.2l5.1,9.4c0.1,0.3,0.3,0.3,0.6,0.2l2.1-1.1
		c0.3-0.1,0.3-0.3,0.2-0.6l-5.1-9.4c-0.1-0.3-0.1-0.5,0.2-0.6l2.1-1.2c0.3-0.1,0.5-0.1,0.6,0.2l12.1,22.4c0.1,0.3,0.1,0.5-0.2,0.6
		l-2.1,1.2c-0.2,0.1-0.5,0.1-0.6-0.2l-5-9.3c-0.1-0.3-0.3-0.3-0.6-0.2l-2.1,1.1c-0.3,0.1-0.3,0.3-0.2,0.6l5,9.3
		c0.1,0.3,0.1,0.5-0.2,0.6l-2.1,1.1c-0.3,0.1-0.5,0.1-0.6-0.2L211.1,151.2z"/>
	<path d="M243.9,160.6c0.3-0.1,0.5,0,0.6,0.3l0.9,2.2c0.1,0.3,0,0.5-0.2,0.6l-7.9,3.2c-0.3,0.1-0.5,0-0.6-0.2l-9.6-23.6
		c-0.1-0.3,0-0.5,0.2-0.6l2.2-0.9c0.3-0.1,0.5,0,0.6,0.2l8.4,20.5c0.1,0.3,0.3,0.4,0.6,0.2L243.9,160.6z"/>
	<path d="M251.1,149.6c0,0.2,0,0.4,0.1,0.6l3.1,10.2c0.1,0.3,0,0.5-0.3,0.6l-2.3,0.7c-0.3,0.1-0.5,0-0.6-0.3L248,151
		c-0.1-0.2-0.1-0.3-0.3-0.5l-8.1-12.3c-0.2-0.3-0.1-0.5,0.2-0.6l2.6-0.8c0.3-0.1,0.5,0,0.6,0.2l4.3,7c0.3,0.4,0.5,0.3,0.5-0.1
		l-0.3-8.3c0-0.3,0.1-0.4,0.4-0.5l2.6-0.8c0.3-0.1,0.5,0,0.5,0.4L251.1,149.6z"/>
	<path d="M280.1,129.6c0.3,0,0.5,0.1,0.5,0.4l2.3,23.8c0,0.2,0,0.4-0.2,0.6l-1.1,1.3c-0.1,0.2-0.3,0.3-0.5,0.3l-5.9,0.6
		c-0.2,0-0.4,0-0.6-0.2l-1.3-1.1c-0.2-0.1-0.3-0.3-0.3-0.5l-2.3-23.8c0-0.3,0.1-0.5,0.4-0.5l2.3-0.2c0.3,0,0.5,0.1,0.5,0.4l2.1,21.8
		c0,0.2,0.1,0.4,0.2,0.5c0.2,0.1,0.3,0.1,0.6,0.1l1.8-0.2c0.2,0,0.4-0.1,0.5-0.2c0.1-0.2,0.1-0.3,0.1-0.6l-2.1-21.8
		c0-0.3,0.1-0.5,0.4-0.5L280.1,129.6z"/>
	<path d="M291.5,155.1c0,0.3-0.2,0.4-0.5,0.4l-2.4,0c-0.3,0-0.4-0.1-0.4-0.5l0.4-25.4c0-0.3,0.1-0.4,0.5-0.4l2.4,0
		c0.3,0,0.4,0.1,0.5,0.4l3.2,13.3c0.1,0.3,0.5,0.3,0.5-0.1l0.2-13.1c0-0.3,0.2-0.4,0.5-0.4l2.4,0c0.3,0,0.4,0.1,0.4,0.5l-0.4,25.4
		c0,0.3-0.1,0.4-0.5,0.4l-2.4,0c-0.3,0-0.4-0.1-0.5-0.4l-3.2-13.3c-0.1-0.3-0.5-0.3-0.5,0.1L291.5,155.1z"/>
	<path d="M307.2,156c0,0.3-0.2,0.4-0.5,0.4l-2.3-0.3c-0.3,0-0.4-0.2-0.4-0.5l3.2-25.2c0-0.3,0.2-0.4,0.5-0.4l7.4,0.9
		c0.2,0,0.4,0.1,0.5,0.3l1,1.4c0.2,0.2,0.2,0.3,0.2,0.6l-1.4,10.8c0,0.2-0.1,0.4-0.3,0.5l-1.3,1c-0.2,0.2-0.4,0.2-0.6,0.2l-4.1-0.5
		c-0.3,0-0.5,0.1-0.5,0.4L307.2,156z M309.1,141.3c0,0.3,0.1,0.5,0.4,0.5l2.1,0.3c0.2,0,0.4,0,0.6-0.1c0.2-0.2,0.2-0.3,0.2-0.5
		l0.9-6.7c0-0.2,0-0.4-0.1-0.5c-0.2-0.2-0.3-0.2-0.5-0.2l-2.1-0.3c-0.3,0-0.5,0.1-0.5,0.4L309.1,141.3z"/>
	<path d="M328.8,160.1c0,0.3-0.2,0.4-0.5,0.4l-2.3-0.5c-0.3-0.1-0.4-0.2-0.4-0.5l0.3-5.8c0-0.3-0.1-0.5-0.4-0.5l-2.7-0.6
		c-0.2-0.1-0.5,0-0.6,0.3l-2.2,5.4c-0.1,0.3-0.3,0.3-0.6,0.3l-2.3-0.5c-0.3-0.1-0.4-0.3-0.3-0.6l10.1-23.7c0.1-0.3,0.3-0.4,0.6-0.3
		l2.4,0.6c0.3,0.1,0.4,0.2,0.4,0.5L328.8,160.1z M323.9,148.8c-0.1,0.3,0,0.5,0.3,0.6l1.5,0.4c0.3,0.1,0.5-0.1,0.5-0.4l0.4-5.4
		c0-0.5-0.3-0.5-0.5-0.1L323.9,148.8z"/>
	<path d="M334.5,162.6c-0.2-0.1-0.4-0.2-0.4-0.4l-0.7-1.5c-0.1-0.2-0.1-0.4,0-0.6l7.6-21.1c0.1-0.2,0.2-0.4,0.4-0.4l1.5-0.7
		c0.2-0.1,0.4-0.1,0.6,0l5.6,2c0.2,0.1,0.4,0.2,0.5,0.4l0.7,1.5c0.1,0.2,0.1,0.4,0,0.6l-1.4,3.9c-0.1,0.3-0.3,0.4-0.6,0.3l-2.2-0.8
		c-0.3-0.1-0.4-0.3-0.3-0.6l0.7-2c0.1-0.2,0.1-0.4,0-0.5c-0.1-0.2-0.2-0.3-0.5-0.4l-1.7-0.6c-0.2-0.1-0.4-0.1-0.6,0
		c-0.2,0.1-0.3,0.2-0.3,0.4l-6.2,17.2c-0.1,0.2-0.1,0.4,0,0.6c0.1,0.2,0.2,0.3,0.5,0.4l1.7,0.6c0.2,0.1,0.4,0.1,0.6,0
		c0.2-0.1,0.3-0.2,0.4-0.5l0.7-2c0.1-0.3,0.3-0.4,0.6-0.3l2.2,0.8c0.3,0.1,0.4,0.3,0.3,0.6l-1.4,3.9c-0.1,0.2-0.2,0.4-0.4,0.4
		l-1.5,0.7c-0.2,0.1-0.4,0.1-0.6,0L334.5,162.6z"/>
	<path d="M356.4,171.5c0,0.3-0.3,0.5-0.5,0.3l-2.1-1.1c-0.2-0.1-0.4-0.3-0.3-0.6l1.3-9.2c0-0.4-0.2-0.5-0.6-0.3l-1.5,1.4
		c-0.1,0.1-0.2,0.3-0.3,0.5l-2.8,5.6c-0.1,0.3-0.4,0.3-0.6,0.2l-2.1-1c-0.3-0.1-0.3-0.3-0.2-0.6l11.3-22.8c0.1-0.3,0.3-0.3,0.6-0.2
		l2.1,1c0.3,0.1,0.4,0.3,0.2,0.6l-4,8.1c-0.2,0.4,0.1,0.6,0.4,0.3l7.4-6.6c0.2-0.2,0.4-0.2,0.6-0.1l2.3,1.2c0.3,0.2,0.3,0.4,0.1,0.6
		l-9,7.9c-0.2,0.2-0.2,0.3-0.3,0.6L356.4,171.5z"/>
	<path d="M370,180.1c-0.1,0.3-0.4,0.4-0.6,0.2l-2-1.3c-0.2-0.2-0.3-0.4-0.2-0.6l2.3-5.4c0.1-0.3,0-0.5-0.2-0.6l-2.3-1.5
		c-0.2-0.1-0.5-0.1-0.6,0.1l-3.9,4.3c-0.2,0.2-0.4,0.2-0.7,0.1l-2-1.3c-0.3-0.2-0.3-0.4-0.1-0.6l17.5-18.9c0.2-0.2,0.4-0.2,0.6-0.1
		l2,1.3c0.2,0.2,0.3,0.4,0.2,0.6L370,180.1z M369.2,167.8c-0.2,0.2-0.2,0.5,0.1,0.6l1.3,0.8c0.3,0.2,0.5,0.1,0.6-0.2l2.2-5
		c0.2-0.4-0.1-0.6-0.5-0.3L369.2,167.8z"/>
	<path d="M374.7,184.4c-0.2-0.1-0.3-0.3-0.3-0.5l-0.2-1.7c0-0.2,0-0.4,0.2-0.6l14.3-17.3c0.2-0.2,0.3-0.3,0.5-0.3l1.7-0.2
		c0.2,0,0.4,0.1,0.6,0.2l4.6,3.8c0.2,0.1,0.3,0.3,0.3,0.5l0.1,1.7c0,0.2,0,0.4-0.2,0.6l-2.6,3.2c-0.2,0.2-0.4,0.3-0.6,0.1l-1.8-1.5
		c-0.2-0.2-0.3-0.4-0.1-0.7l1.3-1.6c0.1-0.2,0.2-0.3,0.2-0.5c0-0.2-0.1-0.4-0.3-0.5l-1.4-1.1c-0.2-0.2-0.3-0.2-0.6-0.2
		c-0.2,0-0.3,0.1-0.5,0.3l-11.7,14.1c-0.2,0.2-0.2,0.3-0.2,0.5c0,0.2,0.1,0.3,0.3,0.5l1.4,1.1c0.2,0.2,0.3,0.2,0.5,0.2
		c0.2,0,0.3-0.1,0.5-0.3l3.4-4.1c0.2-0.2,0.2-0.4-0.1-0.6l-0.5-0.4c-0.2-0.2-0.3-0.4-0.1-0.6l1.5-1.9c0.2-0.2,0.4-0.3,0.7-0.1
		l3.1,2.6c0.2,0.2,0.2,0.4,0,0.7l-6.8,8.3c-0.1,0.2-0.3,0.3-0.5,0.3l-1.7,0.2c-0.2,0-0.4,0-0.6-0.2L374.7,184.4z"/>
	<path d="M391.5,199.3c-0.2,0.2-0.4,0.2-0.6,0l-6-6.1c-0.2-0.2-0.2-0.4,0-0.6l18.2-17.8c0.2-0.2,0.4-0.2,0.6,0l6,6.1
		c0.2,0.2,0.2,0.4,0,0.6l-1.7,1.6c-0.2,0.2-0.4,0.2-0.6,0l-3.7-3.8c-0.2-0.2-0.4-0.2-0.7,0l-5.2,5.1c-0.2,0.2-0.2,0.4,0,0.6l1.7,1.7
		c0.2,0.2,0.2,0.4,0,0.6l-1.7,1.6c-0.2,0.2-0.4,0.2-0.7,0l-1.7-1.7c-0.2-0.2-0.4-0.2-0.6,0l-5.2,5.1c-0.2,0.2-0.2,0.4,0,0.6l3.7,3.8
		c0.2,0.2,0.2,0.4,0,0.6L391.5,199.3z"/>
	<path d="M414.6,187.2c0.2-0.2,0.4-0.2,0.6,0.1l4.6,5.9c0.1,0.2,0.2,0.4,0.2,0.6l-0.2,1.7c0,0.2-0.1,0.4-0.3,0.5L402,209.8
		c-0.2,0.1-0.4,0.2-0.6,0.2l-1.7-0.2c-0.2,0-0.4-0.1-0.5-0.3l-4.6-5.9c-0.2-0.2-0.2-0.4,0.1-0.6L414.6,187.2z M399.3,203.5
		c-0.2,0.2-0.3,0.4-0.1,0.6l1.3,1.6c0.2,0.2,0.3,0.3,0.5,0.3c0.2,0,0.4-0.1,0.5-0.2l14.4-11.3c0.2-0.1,0.3-0.3,0.3-0.5
		c0-0.2,0-0.4-0.2-0.6l-1.3-1.6c-0.2-0.2-0.4-0.2-0.7-0.1L399.3,203.5z"/>
</g>
<g>
	<path d="M295.4,393.3c0.3,0,0.4,0.1,0.4,0.4v4.6c0,0.3-0.1,0.4-0.4,0.4h-7.3c-0.3,0-0.4-0.1-0.4-0.4v-10.1c0-0.2,0.1-0.3,0.2-0.5
		l1-1c0.1-0.1,0.3-0.2,0.5-0.2h3.2c0.2,0,0.3,0,0.4-0.1c0.1-0.1,0.2-0.3,0.2-0.5v-5.5c0-0.2,0-0.3-0.2-0.4c-0.1-0.1-0.2-0.1-0.4-0.1
		H291c-0.2,0-0.3,0-0.4,0.1c-0.1,0.1-0.2,0.3-0.2,0.4v1.7c0,0.3-0.1,0.4-0.4,0.4h-1.9c-0.3,0-0.4-0.1-0.4-0.4v-3.4
		c0-0.2,0.1-0.3,0.2-0.5l1-1c0.1-0.1,0.3-0.2,0.5-0.2h4.8c0.2,0,0.3,0.1,0.5,0.2l1,1c0.1,0.1,0.2,0.2,0.2,0.5v8.8
		c0,0.2-0.1,0.3-0.2,0.5l-1,1c-0.1,0.1-0.3,0.2-0.5,0.2H291c-0.2,0-0.3,0-0.4,0.1c-0.1,0.1-0.2,0.3-0.2,0.5v5.7
		c0,0.3,0.1,0.4,0.4,0.4h2c0.2,0,0.4-0.1,0.4-0.4v-1.9c0-0.3,0.1-0.4,0.4-0.4H295.4z"/>
	<path d="M306.7,377.3c0.2,0,0.3,0.1,0.5,0.2l1,1c0.1,0.1,0.2,0.3,0.2,0.5v18.2c0,0.2-0.1,0.3-0.2,0.5l-1,1
		c-0.1,0.1-0.3,0.2-0.5,0.2h-4.8c-0.2,0-0.3-0.1-0.5-0.2l-1-1c-0.1-0.1-0.2-0.3-0.2-0.5v-18.2c0-0.2,0.1-0.3,0.2-0.5l1-1
		c0.1-0.1,0.3-0.2,0.5-0.2H306.7z M305.6,380.5c0-0.2,0-0.3-0.1-0.4c-0.1-0.1-0.3-0.1-0.5-0.1h-1.5c-0.2,0-0.3,0-0.5,0.1
		c-0.1,0.1-0.1,0.3-0.1,0.4v14.9c0,0.2,0,0.3,0.1,0.5c0.1,0.1,0.3,0.1,0.5,0.1h1.5c0.2,0,0.3,0,0.5-0.1c0.1-0.1,0.1-0.3,0.1-0.5
		V380.5z"/>
	<path d="M316.6,398.4c0,0.3-0.1,0.4-0.4,0.4h-1.9c-0.3,0-0.4-0.1-0.4-0.4V381c0-0.3-0.1-0.4-0.4-0.4H313c-0.3,0-0.4-0.2-0.3-0.5
		l0.8-2.6c0.1-0.2,0.2-0.3,0.4-0.3h2.3c0.3,0,0.4,0.1,0.4,0.4V398.4z"/>
	<path d="M326.9,382.6c-0.3,0-0.4-0.1-0.4-0.4v-1.7c0-0.2,0-0.3-0.2-0.4c-0.1-0.1-0.2-0.1-0.4-0.1h-1.5c-0.2,0-0.3,0-0.4,0.1
		c-0.1,0.1-0.2,0.3-0.2,0.4v5.5c0,0.2,0,0.3,0.2,0.5c0.1,0.1,0.2,0.1,0.4,0.1h3.2c0.2,0,0.3,0.1,0.5,0.2l1,1
		c0.1,0.1,0.2,0.3,0.2,0.5v8.8c0,0.2-0.1,0.3-0.2,0.5l-1,1c-0.1,0.1-0.3,0.2-0.5,0.2h-4.8c-0.2,0-0.3-0.1-0.5-0.2l-1-1
		c-0.1-0.1-0.2-0.3-0.2-0.5v-18.2c0-0.2,0.1-0.3,0.2-0.5l1-1c0.1-0.1,0.3-0.2,0.5-0.2h4.8c0.2,0,0.3,0.1,0.5,0.2l1,1
		c0.1,0.1,0.2,0.2,0.2,0.5v3.4c0,0.3-0.1,0.4-0.4,0.4H326.9z M326.5,389.9c0-0.2,0-0.3-0.2-0.5c-0.1-0.1-0.2-0.1-0.4-0.1h-1.5
		c-0.2,0-0.3,0-0.4,0.1c-0.1,0.1-0.2,0.3-0.2,0.5v5.5c0,0.2,0,0.3,0.2,0.5c0.1,0.1,0.2,0.1,0.4,0.1h1.5c0.2,0,0.3,0,0.4-0.1
		c0.1-0.1,0.2-0.3,0.2-0.5V389.9z"/>
</g>
<path d="M249.5,379.8v17.8h30v-17.8H249.5z M258.4,383.5c0,0.1-0.1,0.2-0.2,0.2h-2.3c-0.1,0-0.2,0.1-0.2,0.2v3.2
	c0,0.1,0.1,0.2,0.2,0.2h1.1c0.1,0,0.2,0.1,0.2,0.2v1c0,0.1-0.1,0.2-0.2,0.2h-1.1c-0.1,0-0.2,0.1-0.2,0.2v3.2c0,0.1,0.1,0.2,0.2,0.2
	h2.3c0.1,0,0.2,0.1,0.2,0.2v1.1c0,0.1-0.1,0.2-0.2,0.2h-3.8c-0.1,0-0.2-0.1-0.2-0.2v-11.2c0-0.1,0.1-0.2,0.2-0.2h3.8
	c0.1,0,0.2,0.1,0.2,0.2V383.5z M265.1,385c0,0.1-0.1,0.2-0.2,0.2h-1.1c-0.1,0-0.2-0.1-0.2-0.2v-0.9c0-0.1,0-0.2-0.1-0.2
	c-0.1-0.1-0.1-0.1-0.2-0.1h-0.8c-0.1,0-0.2,0-0.2,0.1c-0.1,0.1-0.1,0.1-0.1,0.2v3c0,0.1,0,0.2,0.1,0.2c0.1,0.1,0.1,0.1,0.2,0.1h1.7
	c0.1,0,0.2,0,0.3,0.1l0.5,0.5c0.1,0.1,0.1,0.2,0.1,0.2v4.8c0,0.1,0,0.2-0.1,0.2l-0.5,0.5c-0.1,0.1-0.2,0.1-0.3,0.1h-2.6
	c-0.1,0-0.2,0-0.3-0.1l-0.5-0.5c-0.1-0.1-0.1-0.2-0.1-0.2v-1.8c0-0.1,0.1-0.2,0.2-0.2h1.1c0.1,0,0.2,0.1,0.2,0.2v0.9
	c0,0.1,0,0.2,0.1,0.2c0.1,0.1,0.1,0.1,0.2,0.1h0.8c0.1,0,0.2,0,0.2-0.1c0.1-0.1,0.1-0.1,0.1-0.2v-3c0-0.1,0-0.2-0.1-0.2
	c-0.1-0.1-0.1-0.1-0.2-0.1h-1.7c-0.1,0-0.2,0-0.3-0.1l-0.5-0.5c-0.1-0.1-0.1-0.2-0.1-0.2v-4.8c0-0.1,0-0.2,0.1-0.2l0.5-0.5
	c0.1-0.1,0.1-0.1,0.3-0.1h2.6c0.1,0,0.2,0,0.3,0.1l0.5,0.5c0.1,0.1,0.1,0.1,0.1,0.2V385z M271.8,383.5c0,0.1-0.1,0.2-0.2,0.2h-1.2
	c-0.1,0-0.2,0.1-0.2,0.2v9.8c0,0.1-0.1,0.2-0.2,0.2h-1c-0.1,0-0.2-0.1-0.2-0.2V384c0-0.1-0.1-0.2-0.2-0.2h-1.2
	c-0.1,0-0.2-0.1-0.2-0.2v-1.1c0-0.1,0.1-0.2,0.2-0.2h4.3c0.1,0,0.2,0.1,0.2,0.2V383.5z M275.1,393.3c0,0.1,0,0.2-0.1,0.3l-0.3,0.3
	c-0.1,0.1-0.2,0.1-0.2,0.1h-0.7c-0.1,0-0.2,0-0.2-0.1l-0.3-0.3c-0.1-0.1-0.1-0.2-0.1-0.3v-0.7c0-0.1,0-0.2,0.1-0.3l0.3-0.3
	c0.1-0.1,0.2-0.1,0.2-0.1h0.7c0.1,0,0.2,0,0.2,0.1l0.3,0.3c0.1,0.1,0.1,0.2,0.1,0.3V393.3z"/>
<g>
	<path d="M272.7,216.9v-6c0-1.5,0-2.9,0-4.3s0-2.8,0-4.3l-2.1,14.5H269l-2.1-14.5c0,1.5,0,2.9,0,4.3s0,2.8,0,4.3v6h-1.7v-19.7h2.4
		l2.1,15.4l2.1-15.4h2.5v19.7H272.7z"/>
	<path d="M282.3,216.9l-0.4-3.3h-2.9l-0.4,3.3h-1.8l2.7-19.7h2.1l2.6,19.7H282.3z M281.6,211.9c-0.2-1.7-0.4-3.4-0.6-5
		c-0.2-1.7-0.4-3.3-0.6-5.1c-0.2,1.7-0.4,3.4-0.6,5.1c-0.2,1.7-0.4,3.3-0.7,5H281.6z"/>
	<path d="M286.5,216.9v-19.7h1.8v17.9h3.5v1.8H286.5z"/>
	<path d="M301.6,216.9v-6c0-1.5,0-2.9,0-4.3s0-2.8,0-4.3l-2.1,14.5h-1.6l-2.1-14.5c0,1.5,0,2.9,0,4.3s0,2.8,0,4.3v6h-1.7v-19.7h2.4
		l2.1,15.4l2.1-15.4h2.5v19.7H301.6z"/>
	<path d="M306,200.3c0-2.2,1-3.4,3.1-3.4c2.1,0,3.1,1.1,3.1,3.4v13.4c0,2.2-1,3.4-3.1,3.4c-2.1,0-3.1-1.1-3.1-3.4V200.3z M306.5,196
		v-3h1.7v3H306.5z M310.4,200.3c0-1-0.4-1.5-1.3-1.5c-0.8,0-1.3,0.5-1.3,1.5v13.4c0,1,0.4,1.6,1.3,1.6c0.9,0,1.3-0.5,1.3-1.6V200.3z
		 M310.1,196v-3h1.7v3H310.1z"/>
</g>
</svg>
