<svg version="1.1" id="Lager_1" xmlns="http://www.w3.org/2000/svg" xmlns:xlink="http://www.w3.org/1999/xlink" x="0px" y="0px"
	 viewBox="0 0 595.3 595.3" style="enable-background:new 0 0 595.3 595.3;" xml:space="preserve">
<style type="text/css">
	.st0{fill:#FFFFFF;}
</style>
<g>
	<path class="st0" d="M31.8,272.3c-0.7-21.3,13.5-34.7,28.4-39.4c17.5-5.5,33.4-2.5,47.5,9.4c1.1,0.9,2.1,1.9,3,3.1
		c2.2,2.8,2.1,5.1-0.4,7.6c-2.5,2.5-5.4,4.5-8.3,6.3c-1.7,1-3.5,1-5.2,0c-1.1-0.6-2.1-1.4-3.1-2.2c-9.2-7.3-19.3-8.4-29.8-3.7
		c-7.6,3.4-11.6,9.5-11.6,18.1c0.1,18.2,0.2,35.3,0,53.6C52,338.2,61,344,70,345.9c8.1,1.7,15.4,0,21.4-6.1
		c3.3-3.4,5.2-7.4,5.5-12.1c0.2-4.6,0.2-8.8,0.1-13.4c-0.1-3.7-1.8-5.3-5.7-5.3c-4-0.1-8,0-12,0c-5.9-0.1-8-2.1-8-7.9
		c0-2.1-0.1-4.1,0-6.2c0.1-4.3,2.2-6.4,6.5-6.5c6.5-0.1,12.9,0,19.4,0c4.5,0,9.1-0.1,13.6,0c4.5,0.1,6.7,2.1,6.7,6.6
		c0.1,11.2,0.2,21.9,0,33.2c-0.4,17.4-13.5,33.4-31.4,37.3c-18.2,4-34.1-0.9-46.3-15.5c-5.6-6.6-7.7-14.5-7.8-23
		c-0.1-9.8,0-19.1,0-28.9C31.9,289.3,32.1,281,31.8,272.3z"/>
	<path class="st0" d="M175.7,241.9c0-1.3,0-2.6,0-3.9c0.3-4.2,2.5-6.4,6.7-6.4c7.2-0.1,14.5,0,21.7,0c4.8,0,9.6-0.1,14.3,0.1
		c17.7,0.6,33.8,13.8,37.6,30.6c0.4,1.6,0.7,3.3,0.8,5c0.4,10.1,1.1,20.2-0.6,30.2c-1.7,9.9-6.4,18.2-14.6,24.4
		c-0.4,0.3-0.8,0.6-1.2,1c-2.9,2.6-3.1,4.4-1.2,7.8c4.8,8.7,9.7,17.4,14.5,26.1c0.3,0.4,0.4,1,0.8,1.3c2.3,2.7-0.4,6.3-3.3,6.6
		c-4.1,0.3-8.3,0.5-12.4-0.1c-3.1-0.4-5.3-2.5-6.7-5.4c-4.1-7.9-8.2-15.9-12.2-23.8c-0.5-1-1-2.1-1.6-3.1c-1.8-3-4.4-4.7-8-4.6
		c-2.6,0-5.2,0-7.8,0c-4.4,0.1-6.4,2-6.5,6.4c-0.1,7.6,0,15.3,0,22.9c0,5.6-2.1,7.7-7.7,7.8c-2.1,0-4.1,0.1-6.2,0
		c-3.9-0.2-6.1-2.5-6.4-6.4c-0.1-1.3,0-2.6,0-3.9c0-18.7,0-37.5,0-56.2C175.7,279.4,175.7,260.6,175.7,241.9z M196.1,279.4
		c0,7.4-0.1,14.7,0,22.1c0,3.9,2.1,6,6,6.1c6.3,0.1,12.7,0.1,19,0c6.5-0.1,10.9-3.5,13.6-9.2c0.6-1.4,1.1-2.9,1.4-4.4
		c1.3-8.3,0.9-16.7,0.4-25.1c-0.3-4.6-2.6-8.3-6-11.3c-3.2-2.9-6.9-4.4-11-5.2c-5.4-1-10.8-0.7-16.2-0.7c-5.2,0-7,1.9-7.1,7
		C196.1,265.5,196.1,272.4,196.1,279.4L196.1,279.4z"/>
	<path class="st0" d="M345.5,337.5c-4.4,0-6.6,1.8-7.8,6.1c-1.2,4.8-2.3,9.5-3.5,14.3c-1.2,4.8-3.6,6.7-8.5,6.8
		c-2.7,0-5.4,0.1-8.1,0c-4.1-0.2-6.1-2.7-5-6.7c4.3-16,8.6-31.9,13-47.9c6.3-23.2,12.7-46.4,19-69.6c0.3-1.1,0.5-2.3,1-3.4
		c1.4-3.4,3.8-5.5,7.6-5.5c3.5,0,7,0,10.5,0c5.1,0.1,7.8,2.1,9.2,7.2c2.1,7.6,4.2,15.2,6.3,22.8c8.4,30.7,16.7,61.3,25.1,92
		c0.5,1.7,1,3.5,1.4,5.3c0.5,3-1.3,5.5-4.3,5.7c-3.7,0.2-7.5,0.3-11.2,0c-3.3-0.3-5.3-2.5-6.1-5.7c-1.2-4.5-2.2-9-3.3-13.6
		c-0.2-1-0.4-2-0.8-3c-1.2-3-3.3-4.8-6.8-4.8c-4.8,0-9.6,0-14.3,0C354.3,337.5,349.9,337.5,345.5,337.5z M358.9,317.5
		c3,0,5.9,0.1,8.9,0c3.4-0.2,5.1-2.3,4.6-5.7c-0.1-0.6-0.3-1.3-0.5-1.9c-3.5-14.2-6.9-28.3-10.4-42.5c-0.2-0.7-0.4-1.5-0.7-2.2
		c-0.9-1.7-2.7-1.7-3.6,0c-0.4,0.8-0.6,1.7-0.9,2.6c-0.6,2.3-1.1,4.5-1.6,6.8c-2.9,11.7-5.8,23.3-8.6,35c-1.5,6.3-0.2,8.1,6.2,8.1
		C354.5,317.6,356.7,317.6,358.9,317.5L358.9,317.5z"/>
	<path class="st0" d="M563.1,354.9c0,1.2,0,2.3,0,3.5c-0.2,3.5-2.3,5.9-5.7,6.2c-2.8,0.2-5.7,0.2-8.5,0c-3.5-0.2-5.7-2.5-6-5.9
		c-0.1-1.3-0.1-2.6-0.1-3.9c0-16.3,0-34.2,0-50.5c0-1.3,0-2.6-0.2-3.9c-0.1-0.7,0.1-2.7-1.1-3c-1.5-0.4-1.6,1.8-1.9,2.6
		c-0.5,1.3-0.9,2.7-1.2,4.1c-4.1,16.7-8.2,35-12.3,51.7c-0.2,1-0.4,2-0.8,3c-1.4,3.3-3.8,5.2-7.4,5.2c-2.7,0-5.4,0-8.1,0
		c-4.5-0.1-7.2-2.1-8.3-6.6c-2.9-11.4-5.6-22.8-8.4-34.3c-1.5-6-3-13.7-4.5-19.7c-0.1-0.3-0.1-0.5-0.2-0.8c-0.6-1.4-1-5.4-2.6-5.1
		c-2.3,0.4-1.4,4.3-1.6,5.9c-0.1,1,0,2.1,0,3.1c0,16.2,0,33.9,0,50.1c0,6.1-2,8.1-8.1,8.2c-2.1,0-4.1,0.1-6.2-0.1
		c-3.5-0.3-5.7-2.5-6-6c-0.1-1.2-0.1-2.3-0.1-3.5c0-38,0.1-76-0.1-114c0-6.1,1.1-10.2,9.5-9.6c2.8,0.2,5.7,0,8.5,0
		c5.1,0,7.5,1.8,8.9,6.8c1.6,5.7,3.1,11.5,4.7,17.2c5,18.5,10.1,36.9,15.1,55.4c0.2,0.9,0.5,1.7,0.7,2.6c0.4,1.3,0.8,4.2,2.5,4.1
		c1.6,0,2-3.1,2.4-4.3c0.3-0.9,0.5-1.7,0.8-2.6c6.3-23.2,12.6-46.4,19-69.6c0.4-1.6,0.8-3.3,1.5-4.8c1.2-3,3.4-4.8,6.8-4.8
		c4.3,0,8.5-0.1,12.8,0c4.3,0.1,6.3,2.2,6.4,6.6c0.1,5.4,0,10.9,0,16.3c0,14.6,0,29.2,0,43.8C563.1,317.1,563.1,336,563.1,354.9z"/>
</g>
<g>
	<path class="st0" d="M123.2,409.9l27.8-20.4l5.5,7.5l-2.6,1.9l-3.7-5l-9.9,7.3l2.5,3.4l-2.6,1.9l-2.5-3.4l-12.8,9.4L123.2,409.9z"
		/>
	<path class="st0" d="M153.9,402.6c3-2.6,5.6-2.5,8,0.3c2.4,2.8,2.1,5.4-0.9,8l-17.8,15.4c-3,2.6-5.6,2.5-8-0.3
		c-2.4-2.7-2-5.4,0.9-7.9L153.9,402.6z M158.9,408.4c1.3-1.2,1.5-2.3,0.5-3.4c-1-1.1-2.1-1.1-3.5,0l-17.8,15.4
		c-1.4,1.2-1.6,2.3-0.6,3.5c1,1.1,2.2,1.1,3.5-0.1L158.9,408.4z"/>
	<path class="st0" d="M163.7,413.7c2.7-2.8,5.4-2.9,8-0.4c2.6,2.5,2.5,5.2-0.2,8L155,438.1c-2.7,2.8-5.4,2.9-8,0.4
		c-2.6-2.5-2.5-5.2,0.2-8L163.7,413.7z M169.2,419.1c1.2-1.3,1.3-2.4,0.2-3.5c-1.1-1-2.2-0.9-3.4,0.3l-16.5,16.8
		c-1.3,1.3-1.4,2.5-0.3,3.5c1.1,1.1,2.3,0.9,3.5-0.4L169.2,419.1z"/>
	<path class="st0" d="M156.2,446.5l22-26.6l4.1,3.4c1.4,1.2,2.1,2.5,2.2,3.8c0,1.4-0.6,2.8-1.7,4.2l-14.5,17.5
		c-2.5,3-5.1,3.4-7.9,1.1L156.2,446.5z M180.2,429.3c0.6-0.7,0.8-1.3,0.8-1.9c0-0.6-0.3-1.2-0.9-1.6l-1.7-1.4l-17.9,21.7l1.7,1.4
		c1.2,1,2.3,0.7,3.5-0.7L180.2,429.3z"/>
	<path class="st0" d="M188.7,469.3c-0.3,0-0.6,0-0.9-0.1c-0.3-0.1-0.7-0.3-1.1-0.5c-0.4-0.3-0.8-0.6-1-0.9c-0.2-0.3-0.4-0.7-0.4-1.1
		c-0.6,0.1-1.2,0-1.9-0.2c-0.7-0.2-1.3-0.5-2-0.9c-1-0.6-1.7-1.3-2.2-1.9c-0.5-0.6-0.7-1.3-0.8-2.1c0-0.7,0.1-1.5,0.4-2.4
		c0.3-0.8,0.8-1.8,1.4-2.8l1.3-2c0.5-0.8,1-1.5,1.5-2.1c0.5-0.6,1-1.1,1.6-1.6s1.2-0.9,1.9-1.2c0.7-0.4,1.5-0.7,2.4-1
		c0.3-1.4,0.6-2.6,0.8-3.5c0.2-0.9,0.5-1.7,0.7-2.3c0.2-0.6,0.4-1.1,0.7-1.6c0.2-0.4,0.5-0.9,0.8-1.3l1.1-1.8
		c1.1-1.7,2.1-2.8,3.2-3.1c1.1-0.4,2.3-0.1,3.6,0.7c0.7,0.4,1.2,0.9,1.6,1.4c0.3,0.5,0.5,1.1,0.5,1.7c0,0.6-0.1,1.2-0.3,1.9
		c-0.2,0.7-0.6,1.3-1,2l-1.3,2.1c-0.5,0.8-1,1.5-1.6,2c-0.6,0.6-1.2,1.1-1.8,1.5c-0.7,0.5-1.4,0.9-2.1,1.2c-0.8,0.4-1.6,0.7-2.4,1.1
		l-2.6,11.7c0.7-0.5,1.3-1.1,1.9-1.8c0.6-0.7,1.1-1.4,1.6-2.2l0.7-1.1l2.1,1.3l-0.8,1.2c-0.8,1.3-1.7,2.5-2.7,3.5
		c-1,1.1-2.1,1.9-3.2,2.4c0.1,0.1,0.1,0.3,0.3,0.4c0.1,0.2,0.3,0.3,0.5,0.4c0.5,0.3,1,0.4,1.4,0.2L188.7,469.3z M188.2,451.8
		c-0.4,0.2-0.8,0.4-1.1,0.6c-0.3,0.2-0.7,0.5-1,0.8c-0.3,0.3-0.6,0.7-0.9,1.1c-0.3,0.4-0.7,0.9-1,1.5l-1.3,2.1
		c-0.8,1.3-1.2,2.3-1.2,3.1c0,0.8,0.5,1.4,1.4,2c0.9,0.5,1.7,0.8,2.4,0.7L188.2,451.8z M194.1,441.3c-0.6,0.9-1,1.9-1.4,2.9
		c-0.3,1-0.6,2.1-0.8,3.2c1-0.4,1.9-0.9,2.9-1.5c0.9-0.7,1.8-1.6,2.5-2.8l0.9-1.5c0.4-0.7,0.7-1.3,0.7-1.9c0.1-0.6-0.2-1-0.7-1.4
		c-0.6-0.4-1.1-0.4-1.6-0.2c-0.5,0.2-1,0.7-1.4,1.5L194.1,441.3z"/>
	<path class="st0" d="M208.7,479.6l6.5-14.6l-4.1-1.8l-6.5,14.6l-2.9-1.3l14.1-31.5l2.9,1.3l-6.3,14.1l4.1,1.8l6.3-14.1l2.9,1.3
		l-14.1,31.5L208.7,479.6z"/>
	<path class="st0" d="M227.3,455.9c1.3-3.7,3.6-5,7-3.8c3.4,1.2,4.5,3.6,3.2,7.3l-7.7,22.2c-1.3,3.7-3.6,5-7.1,3.8
		c-3.4-1.2-4.5-3.6-3.2-7.3L227.3,455.9z M234.5,458.4c0.6-1.7,0.2-2.7-1.3-3.2c-1.4-0.5-2.4,0.1-3,1.8l-7.7,22.2
		c-0.6,1.7-0.2,2.8,1.2,3.3c1.4,0.5,2.4-0.1,3-1.8L234.5,458.4z"/>
	<path class="st0" d="M250.2,457.1l3.1,0.8l-7.1,28.2c-1,3.8-3.2,5.3-6.7,4.4c-3.5-0.9-4.8-3.2-3.8-7l7.1-28.2l3.1,0.8l-7.1,28.2
		c-0.4,1.8,0.1,2.8,1.5,3.2c1.4,0.4,2.4-0.3,2.8-2.1L250.2,457.1z"/>
	<path class="st0" d="M260.2,483.8c0.1-0.5,0.1-1,0.2-1.3c0-0.3,0-0.6,0-0.9c0-0.3-0.1-0.5-0.2-0.7c-0.1-0.2-0.2-0.5-0.4-0.8
		c-0.3-0.6-0.7-1.1-1-1.6c-0.3-0.5-0.7-1-1.1-1.5c-0.4-0.5-0.7-1-1.1-1.6s-0.8-1.2-1.2-1.9c-0.4-0.7-0.7-1.4-0.7-2.1
		c0-0.7,0.1-1.5,0.3-2.5l0.8-5.1c0.6-3.8,2.7-5.3,6.2-4.8c1.9,0.3,3.2,1,3.8,2c0.6,1.1,0.8,2.5,0.5,4.4l-1,6.2l-2.9-0.5l0.9-5.8
		c0.1-0.9,0.1-1.6-0.1-2.1c-0.2-0.6-0.7-0.9-1.6-1.1c-1.5-0.2-2.3,0.5-2.6,2.1l-0.8,5.1c-0.1,0.7-0.2,1.3-0.1,1.6
		c0,0.3,0.2,0.7,0.4,1.2c0.7,1.2,1.4,2.2,2.1,3.2c0.7,0.9,1.5,2,2.2,3.2c0.2,0.4,0.4,0.8,0.6,1.2s0.2,0.8,0.3,1.2c0,0.4,0,0.9,0,1.4
		c0,0.5-0.1,1.1-0.2,1.8l-0.8,4.9c-0.3,1.8-0.9,3.2-1.9,4c-1,0.8-2.4,1.1-4.3,0.8c-1.9-0.3-3.1-1-3.8-2.1c-0.7-1.1-0.9-2.6-0.6-4.4
		l1.2-7.2l3,0.5l-1.1,6.8c-0.1,0.9-0.1,1.6,0.1,2.2c0.2,0.6,0.8,1,1.6,1.1c0.8,0.1,1.4,0,1.8-0.4c0.4-0.4,0.7-1,0.8-1.8L260.2,483.8
		z"/>
	<path class="st0" d="M267.9,495.1l2.9-34.4l9.1,0.8l-0.3,3.2l-5.9-0.5l-1,12.1l4.2,0.3l-0.3,3.2l-4.2-0.3l-1.1,12.8l6.1,0.5
		l-0.3,3.1L267.9,495.1z"/>
	<path class="st0" d="M291.2,496.3l0.3-16l-4.4-0.1l-0.3,16l-3.2-0.1l0.6-34.5l3.2,0.1l-0.2,15.4l4.4,0.1l0.2-15.4l3.2,0.1
		l-0.6,34.5L291.2,496.3z"/>
	<path class="st0" d="M298.5,467c-0.3-3.9,1.3-6,4.9-6.3c3.6-0.3,5.6,1.5,5.9,5.4l1.9,23.5c0.3,3.9-1.3,6-5,6.3
		c-3.6,0.3-5.6-1.5-5.9-5.4L298.5,467z M306.1,466.4c-0.1-1.8-1-2.6-2.5-2.4c-1.5,0.1-2.1,1.1-2,2.8l1.9,23.5c0.1,1.8,1,2.7,2.4,2.5
		c1.5-0.1,2.2-1.1,2-2.9L306.1,466.4z"/>
	<path class="st0" d="M318.2,494.2l-5.6-34.1l3.1-0.5l5.1,31l6.1-1l0.5,3.1L318.2,494.2z"/>
	<path class="st0" d="M333,491.6l-8.3-33.5l5.2-1.3c1.8-0.4,3.2-0.3,4.4,0.5c1.1,0.8,1.9,2.1,2.3,3.9l5.5,22.1
		c0.9,3.8-0.4,6.1-3.9,7L333,491.6z M333.6,462c-0.2-0.8-0.6-1.4-1-1.8c-0.5-0.4-1.1-0.5-1.8-0.3l-2.1,0.5l6.7,27.3l2.1-0.5
		c1.5-0.4,2-1.4,1.5-3.2L333.6,462z"/>
	<path class="st0" d="M358.1,484.3l-12.5-32.2l5-2c1.9-0.7,3.4-0.8,4.7-0.2s2.3,1.9,3.1,3.9l2.1,5.3c0.8,2,0.9,3.7,0.4,4.9
		c-0.5,1.3-1.7,2.3-3.6,3l-2.1,0.8l6,15.3L358.1,484.3z M355.5,455c-0.4-1-0.8-1.6-1.4-1.9c-0.6-0.3-1.3-0.3-2.3,0.1l-2,0.8l4.3,11
		l2.1-0.8c0.9-0.3,1.4-0.8,1.7-1.4c0.2-0.6,0.2-1.4-0.2-2.4L355.5,455z"/>
	<path class="st0" d="M381.4,474.2c-1.5-2.3-3-4.5-4.5-6.6c-1.5-2.1-3-4.3-4.6-6.4c-0.1,0.1-0.2,0.2-0.3,0.2
		c-0.1,0.1-0.2,0.1-0.3,0.2l-1.5,0.8l6.9,14l-2.9,1.4l-15.3-31l4.7-2.3c1.8-0.9,3.4-1.1,4.7-0.7c1.3,0.4,2.5,1.6,3.5,3.6l3,6.2
		c1.1,2.3,1.1,4.2,0,5.7c1.7,2.3,3.4,4.5,5,6.7c1.6,2.2,3.2,4.4,4.8,6.7L381.4,474.2z M369,449.2c-0.6-1.1-1.1-1.8-1.7-2.1
		c-0.5-0.3-1.3-0.2-2.3,0.3l-1.8,0.9l5.6,11.4l1.9-0.9c0.9-0.4,1.4-0.9,1.6-1.5c0.2-0.6,0-1.3-0.4-2.2L369,449.2z"/>
	<path class="st0" d="M374.3,445.1c-2-3.4-1.5-6,1.6-7.8c3.1-1.9,5.7-1.1,7.7,2.2l12.2,20.2c2,3.4,1.5,6-1.6,7.8
		c-3.1,1.9-5.6,1.1-7.7-2.2L374.3,445.1z M380.9,441.2c-0.9-1.5-2-1.9-3.3-1.1c-1.3,0.8-1.5,1.9-0.5,3.4l12.2,20.2
		c0.9,1.6,2,2,3.3,1.2c1.3-0.8,1.5-1.9,0.5-3.5L380.9,441.2z"/>
	<path class="st0" d="M404.1,460.7l-20.3-28l4.3-3.2c1.5-1.1,2.9-1.5,4.3-1.1c1.3,0.3,2.6,1.2,3.6,2.7l13.4,18.4c2.3,3.2,2,5.8-1,8
		L404.1,460.7z M393.5,433.1c-0.5-0.7-1.1-1.1-1.6-1.3c-0.6-0.2-1.2,0-1.8,0.4l-1.8,1.3l16.5,22.8l1.8-1.3c1.2-0.9,1.3-2.1,0.2-3.5
		L393.5,433.1z"/>
	<path class="st0" d="M401.2,419.2l2.4-2.1l19,22c2.6,3,2.5,5.6-0.2,8c-2.7,2.4-5.4,2.1-7.9-0.9l-19-22l2.4-2.1l19,22
		c1.2,1.4,2.3,1.6,3.5,0.6c1.1-1,1.1-2.1-0.1-3.5L401.2,419.2z"/>
	<path class="st0" d="M427.2,424.4l2-2.1l5.1,5c1.4,1.4,2.2,2.7,2.4,4c0.1,1.2-0.4,2.5-1.6,3.8c-2.6,2.6-5.2,2.6-8-0.1l-16.8-16.4
		c-2.8-2.8-3-5.5-0.4-8.1c2.3-2.4,4.9-2.2,7.7,0.5l4.4,4.3l-2,2.1l-4.4-4.2c-0.7-0.6-1.3-1-1.8-1.1c-0.5-0.1-1.1,0.2-1.6,0.7
		c-1.1,1.1-0.9,2.2,0.3,3.5l16.8,16.4c1.3,1.3,2.5,1.4,3.5,0.3c0.5-0.6,0.8-1.1,0.7-1.7c-0.1-0.5-0.5-1.1-1.1-1.8L427.2,424.4z"/>
	<path class="st0" d="M444,424.6l-24-20.1l-2.5,3l-2.5-2.1l7-8.3l2.5,2.1l-2.5,3l24,20.1L444,424.6z"/>
	<path class="st0" d="M447.5,403.4c-0.4-0.3-0.8-0.6-1.1-0.7s-0.6-0.3-0.8-0.4c-0.3-0.1-0.5-0.1-0.8-0.1c-0.3,0-0.5,0-0.9,0
		c-0.7,0-1.3,0.1-1.9,0.2c-0.6,0.1-1.2,0.2-1.8,0.3c-0.6,0.1-1.3,0.2-1.9,0.3c-0.7,0.1-1.4,0.2-2.2,0.2c-0.9,0.1-1.6,0-2.2-0.4
		c-0.6-0.3-1.3-0.8-2.1-1.3l-4.2-3c-3.1-2.2-3.6-4.8-1.5-7.7c1.1-1.6,2.3-2.4,3.5-2.5c1.2-0.1,2.6,0.4,4.2,1.5l5.1,3.7l-1.7,2.4
		l-4.8-3.4c-0.7-0.5-1.4-0.8-2-0.9c-0.6-0.1-1.2,0.2-1.7,1c-0.9,1.2-0.6,2.3,0.7,3.2l4.2,3c0.6,0.4,1.1,0.7,1.4,0.8
		c0.3,0.1,0.7,0.2,1.2,0.1c1.4-0.1,2.6-0.2,3.8-0.5c1.2-0.2,2.5-0.4,3.8-0.5c0.5,0,0.9,0,1.3,0c0.4,0.1,0.8,0.2,1.2,0.3
		c0.4,0.2,0.8,0.4,1.3,0.6c0.5,0.3,1,0.6,1.5,1l4,2.9c1.5,1.1,2.4,2.2,2.7,3.5c0.3,1.2-0.1,2.6-1.2,4.2c-1.1,1.5-2.3,2.4-3.6,2.5
		c-1.3,0.1-2.7-0.4-4.2-1.4l-6-4.3l1.8-2.5l5.6,4c0.7,0.5,1.4,0.8,2.1,0.9c0.6,0.1,1.2-0.2,1.7-0.9c0.5-0.7,0.6-1.3,0.5-1.8
		c-0.1-0.5-0.6-1-1.2-1.5L447.5,403.4z"/>
</g>
<g>
	<path class="st0" d="M130.9,180.8c-0.3-0.2-0.3-0.5-0.1-0.8l6.2-8.3c0.2-0.3,0.5-0.3,0.8-0.1l2.3,1.7c0.3,0.2,0.3,0.5,0.1,0.8
		l-3.8,5.1c-0.2,0.3-0.2,0.6,0.1,0.8l7.1,5.3c0.3,0.2,0.5,0.2,0.8-0.1l1.7-2.3c0.2-0.3,0.5-0.3,0.8-0.1l2.3,1.7
		c0.3,0.2,0.4,0.5,0.1,0.8l-1.7,2.3c-0.2,0.3-0.2,0.5,0.1,0.8l10.3,7.8c0.3,0.2,0.3,0.5,0.1,0.8l-1.7,2.3c-0.2,0.3-0.5,0.3-0.8,0.1
		L130.9,180.8z"/>
	<path class="st0" d="M168.8,183c0.3,0.3,0.3,0.5,0,0.8l-1.9,2.1c-0.3,0.3-0.5,0.3-0.8,0l-22.5-21c-0.3-0.3-0.3-0.5,0-0.8l6.2-6.6
		c0.2-0.2,0.4-0.3,0.6-0.3l2,0c0.3,0,0.5,0,0.7,0.2l9.6,9c0.2,0.2,0.3,0.4,0.3,0.7l0.1,2c0,0.3,0.1,0.5,0.4,0.6l10.7,7.5
		c0.3,0.2,0.3,0.5,0.1,0.8l-2,2.1c-0.2,0.2-0.5,0.3-0.8,0.1l-10.7-7.5c-0.3-0.2-0.5-0.2-0.8,0.1l-0.6,0.7c-0.3,0.3-0.2,0.5,0,0.8
		L168.8,183z M155.7,170.8c0.3,0.3,0.5,0.3,0.8,0l1.7-1.9c0.2-0.2,0.3-0.4,0.3-0.6c0-0.3-0.1-0.4-0.3-0.6l-6-5.6
		c-0.2-0.2-0.4-0.3-0.6-0.3c-0.3,0-0.4,0.1-0.6,0.3l-1.7,1.9c-0.3,0.3-0.3,0.5,0,0.8L155.7,170.8z"/>
	<path class="st0" d="M187.2,165.6c0.2,0.3,0.2,0.6-0.1,0.8l-7.9,6.8c-0.3,0.2-0.5,0.2-0.8-0.1l-20.1-23.3c-0.2-0.3-0.2-0.5,0.1-0.8
		l7.9-6.8c0.3-0.2,0.5-0.2,0.8,0.1l1.9,2.2c0.2,0.3,0.2,0.6-0.1,0.8l-4.8,4.2c-0.3,0.2-0.3,0.5,0,0.8l5.8,6.7
		c0.2,0.3,0.5,0.3,0.8,0.1l2.2-1.9c0.3-0.2,0.5-0.2,0.8,0.1l1.9,2.2c0.2,0.3,0.3,0.6,0,0.8l-2.2,1.9c-0.3,0.2-0.3,0.5-0.1,0.8
		l5.8,6.7c0.2,0.3,0.5,0.3,0.8,0.1l4.8-4.2c0.3-0.2,0.6-0.2,0.8,0.1L187.2,165.6z"/>
	<path class="st0" d="M187.9,135.7c0.2,0.3,0.1,0.6-0.2,0.8l-2.4,1.6c-0.3,0.2-0.5,0.2-0.8-0.1l-1.5-2.1c-0.1-0.2-0.3-0.4-0.6-0.4
		c-0.2,0-0.4,0-0.6,0.2l-1.8,1.3c-0.2,0.1-0.4,0.3-0.4,0.5c-0.1,0.3,0,0.5,0.2,0.7l4.7,6.8c0.2,0.2,0.3,0.4,0.6,0.4
		c0.2,0,0.4,0,0.6-0.2l3.9-2.7c0.2-0.2,0.5-0.2,0.8-0.2l2,0.4c0.2,0,0.5,0.2,0.6,0.4l7.5,10.8c0.1,0.2,0.2,0.5,0.1,0.7l-0.4,2
		c-0.1,0.3-0.2,0.5-0.4,0.6l-5.9,4.1c-0.3,0.2-0.5,0.2-0.8,0.2l-2-0.3c-0.2,0-0.4-0.2-0.6-0.4l-2.8-4.1c-0.2-0.3-0.2-0.5,0.1-0.8
		l2.4-1.6c0.3-0.2,0.5-0.2,0.8,0.1l1.4,2.1c0.2,0.2,0.3,0.4,0.6,0.4c0.2,0,0.4,0,0.6-0.2l1.8-1.3c0.2-0.2,0.4-0.3,0.4-0.5
		c0.1-0.3,0-0.5-0.2-0.7l-4.7-6.7c-0.2-0.2-0.3-0.4-0.6-0.4c-0.2,0-0.4,0-0.6,0.2l-3.8,2.7c-0.3,0.2-0.5,0.2-0.8,0.2l-2-0.3
		c-0.2,0-0.4-0.2-0.6-0.4l-7.5-10.8c-0.2-0.2-0.2-0.5-0.2-0.7l0.4-2c0.1-0.3,0.2-0.4,0.4-0.6l5.9-4.1c0.2-0.2,0.5-0.2,0.7-0.2l2,0.4
		c0.2,0,0.5,0.1,0.6,0.4L187.9,135.7z"/>
	<path class="st0" d="M192,125.1c-0.2-0.3-0.1-0.6,0.2-0.7l2.5-1.4c0.3-0.2,0.6-0.1,0.8,0.2l6.1,11.3c0.2,0.3,0.4,0.4,0.7,0.2
		l2.5-1.4c0.3-0.2,0.4-0.4,0.2-0.7l-6.1-11.3c-0.2-0.3-0.1-0.6,0.2-0.7l2.6-1.4c0.3-0.2,0.6-0.1,0.7,0.2l14.6,27.1
		c0.2,0.3,0.1,0.6-0.2,0.7l-2.6,1.4c-0.3,0.2-0.6,0.1-0.7-0.2l-6.1-11.3c-0.2-0.3-0.4-0.4-0.7-0.2l-2.5,1.4
		c-0.3,0.2-0.4,0.4-0.2,0.7l6.1,11.3c0.2,0.3,0.1,0.6-0.3,0.8l-2.5,1.4c-0.3,0.2-0.6,0.1-0.7-0.2L192,125.1z"/>
	<path class="st0" d="M231.7,136.6c0.3-0.1,0.6,0,0.7,0.3l1.1,2.6c0.1,0.4,0,0.6-0.3,0.7l-9.6,3.9c-0.3,0.1-0.6,0.1-0.7-0.3
		l-11.6-28.5c-0.1-0.3-0.1-0.6,0.3-0.7l2.7-1.1c0.3-0.1,0.6,0,0.7,0.3l10.1,24.8c0.1,0.3,0.4,0.4,0.7,0.3L231.7,136.6z"/>
	<path class="st0" d="M240.3,123.2c0,0.3,0,0.4,0.1,0.7l3.7,12.4c0.1,0.4,0,0.6-0.4,0.7l-2.7,0.8c-0.4,0.1-0.6,0-0.7-0.4l-3.7-12.4
		c-0.1-0.2-0.2-0.4-0.3-0.6l-9.9-14.9c-0.2-0.4-0.1-0.6,0.3-0.7l3.1-0.9c0.4-0.1,0.6,0,0.8,0.2l5.2,8.5c0.3,0.5,0.6,0.4,0.7-0.2
		l-0.4-10c0-0.3,0.1-0.5,0.5-0.6l3.1-0.9c0.4-0.1,0.6,0,0.6,0.5L240.3,123.2z"/>
	<path class="st0" d="M275.5,99c0.4,0,0.6,0.1,0.6,0.5l2.8,28.8c0,0.3,0,0.5-0.2,0.7l-1.3,1.6c-0.1,0.2-0.4,0.3-0.6,0.4l-7.1,0.7
		c-0.3,0-0.5,0-0.7-0.2l-1.6-1.3c-0.2-0.1-0.3-0.4-0.4-0.6l-2.8-28.8c0-0.4,0.1-0.6,0.5-0.6l2.8-0.3c0.4,0,0.6,0.1,0.6,0.5l2.6,26.4
		c0,0.3,0.1,0.5,0.3,0.6c0.2,0.1,0.4,0.2,0.7,0.1l2.2-0.2c0.3,0,0.5-0.1,0.6-0.3c0.1-0.2,0.2-0.4,0.1-0.7l-2.6-26.4
		c0-0.4,0.2-0.6,0.5-0.6L275.5,99z"/>
	<path class="st0" d="M289.3,129.9c0,0.4-0.2,0.5-0.6,0.5l-2.9,0c-0.4,0-0.5-0.2-0.5-0.6l0.5-30.8c0-0.4,0.2-0.5,0.6-0.5l2.9,0
		c0.3,0,0.5,0.1,0.6,0.5l3.9,16.1c0.1,0.3,0.6,0.3,0.6-0.1l0.3-15.8c0-0.4,0.2-0.5,0.6-0.5l2.9,0c0.4,0,0.5,0.2,0.5,0.6l-0.5,30.8
		c0,0.4-0.2,0.5-0.6,0.5l-2.9,0c-0.3,0-0.5-0.1-0.6-0.5l-3.9-16.1c-0.1-0.4-0.6-0.3-0.6,0.1L289.3,129.9z"/>
	<path class="st0" d="M308.4,131c0,0.4-0.3,0.5-0.7,0.5l-2.8-0.4c-0.4,0-0.5-0.2-0.5-0.6l3.9-30.6c0-0.4,0.2-0.5,0.6-0.5l8.9,1.1
		c0.3,0,0.5,0.1,0.6,0.3l1.2,1.6c0.2,0.2,0.2,0.4,0.2,0.7l-1.7,13.1c0,0.2-0.1,0.5-0.4,0.6l-1.6,1.2c-0.2,0.2-0.5,0.2-0.7,0.2
		l-5-0.6c-0.4,0-0.6,0.1-0.6,0.5L308.4,131z M310.6,113.2c0,0.4,0.1,0.6,0.5,0.6l2.5,0.3c0.3,0,0.5,0,0.7-0.1
		c0.2-0.2,0.3-0.3,0.3-0.6l1-8.2c0-0.3,0-0.5-0.1-0.7c-0.2-0.2-0.3-0.3-0.6-0.3l-2.5-0.3c-0.4,0-0.6,0.1-0.6,0.5L310.6,113.2z"/>
	<path class="st0" d="M334.4,136c0,0.3-0.3,0.5-0.6,0.5l-2.8-0.7c-0.3-0.1-0.5-0.3-0.5-0.6l0.4-7.1c0-0.3-0.2-0.6-0.5-0.6l-3.3-0.8
		c-0.3-0.1-0.6,0-0.7,0.4l-2.7,6.5c-0.1,0.3-0.4,0.4-0.7,0.3l-2.8-0.7c-0.4-0.1-0.5-0.4-0.4-0.7l12.3-28.7c0.1-0.3,0.4-0.4,0.7-0.4
		l2.9,0.7c0.3,0.1,0.5,0.3,0.5,0.6L334.4,136z M328.5,122.3c-0.1,0.3,0,0.6,0.4,0.7l1.8,0.4c0.4,0.1,0.6-0.1,0.6-0.5l0.4-6.6
		c0-0.6-0.4-0.7-0.7-0.2L328.5,122.3z"/>
	<path class="st0" d="M341.4,138.9c-0.2-0.1-0.4-0.2-0.5-0.5l-0.9-1.8c-0.1-0.2-0.1-0.5,0-0.7l9.2-25.5c0.1-0.3,0.3-0.4,0.5-0.5
		l1.8-0.9c0.2-0.1,0.5-0.1,0.7,0l6.8,2.4c0.2,0.1,0.4,0.2,0.5,0.5l0.8,1.9c0.1,0.2,0.1,0.5,0,0.7l-1.7,4.7c-0.1,0.4-0.3,0.5-0.7,0.3
		l-2.7-1c-0.4-0.1-0.5-0.4-0.4-0.7l0.9-2.4c0.1-0.2,0.1-0.4,0-0.7c-0.1-0.2-0.3-0.4-0.5-0.5l-2.1-0.8c-0.3-0.1-0.5-0.1-0.7,0
		c-0.2,0.1-0.3,0.3-0.4,0.5l-7.5,20.8c-0.1,0.3-0.1,0.4,0,0.7c0.1,0.2,0.3,0.3,0.6,0.4l2.1,0.8c0.3,0.1,0.4,0.1,0.7,0
		c0.2-0.1,0.3-0.3,0.4-0.6l0.9-2.4c0.1-0.4,0.4-0.4,0.7-0.3l2.7,1c0.4,0.1,0.5,0.3,0.3,0.7l-1.7,4.7c-0.1,0.2-0.3,0.4-0.5,0.5
		l-1.8,0.9c-0.2,0.1-0.5,0.1-0.7,0L341.4,138.9z"/>
	<path class="st0" d="M368,149.8c-0.1,0.4-0.3,0.5-0.7,0.4l-2.6-1.3c-0.3-0.1-0.4-0.4-0.4-0.7l1.6-11.1c0.1-0.5-0.3-0.7-0.7-0.3
		l-1.9,1.7c-0.2,0.2-0.3,0.3-0.4,0.5l-3.4,6.8c-0.2,0.3-0.4,0.4-0.8,0.2l-2.6-1.3c-0.3-0.2-0.4-0.4-0.2-0.7l13.6-27.6
		c0.2-0.3,0.4-0.4,0.7-0.2l2.6,1.3c0.3,0.2,0.5,0.4,0.3,0.7l-4.8,9.7c-0.2,0.5,0.1,0.8,0.5,0.4l9-8c0.2-0.2,0.4-0.2,0.8-0.1l2.8,1.4
		c0.4,0.2,0.4,0.5,0.1,0.7l-10.9,9.6c-0.2,0.2-0.3,0.4-0.3,0.7L368,149.8z"/>
	<path class="st0" d="M384.3,160.1c-0.1,0.3-0.4,0.4-0.7,0.2l-2.4-1.6c-0.3-0.2-0.4-0.4-0.2-0.7l2.7-6.5c0.1-0.3,0-0.6-0.2-0.7
		l-2.8-1.8c-0.2-0.2-0.5-0.2-0.8,0.1l-4.7,5.2c-0.2,0.3-0.5,0.3-0.8,0.1l-2.4-1.6c-0.3-0.2-0.3-0.5-0.1-0.8l21.2-22.9
		c0.2-0.3,0.5-0.3,0.8-0.1l2.5,1.6c0.3,0.2,0.4,0.4,0.3,0.8L384.3,160.1z M383.4,145.2c-0.2,0.3-0.2,0.6,0.1,0.8l1.5,1
		c0.3,0.2,0.6,0.1,0.7-0.2l2.6-6c0.2-0.5-0.2-0.8-0.6-0.4L383.4,145.2z"/>
	<path class="st0" d="M390.1,165.4c-0.2-0.2-0.3-0.4-0.3-0.7l-0.2-2c-0.1-0.3,0-0.5,0.2-0.7l17.3-20.9c0.2-0.2,0.4-0.3,0.7-0.3
		l2-0.2c0.2,0,0.5,0.1,0.7,0.2l5.5,4.6c0.2,0.2,0.3,0.4,0.4,0.6l0.2,2c0.1,0.3,0,0.5-0.2,0.7l-3.2,3.8c-0.2,0.3-0.5,0.3-0.8,0.1
		l-2.2-1.8c-0.3-0.2-0.3-0.5-0.1-0.8l1.6-2c0.2-0.2,0.3-0.4,0.2-0.6c-0.1-0.3-0.1-0.4-0.4-0.6l-1.7-1.4c-0.2-0.2-0.4-0.2-0.7-0.2
		c-0.2,0-0.4,0.2-0.6,0.4l-14.1,17.1c-0.2,0.2-0.3,0.4-0.3,0.7c0.1,0.3,0.2,0.4,0.4,0.6l1.7,1.4c0.2,0.2,0.4,0.3,0.7,0.3
		c0.3-0.1,0.4-0.2,0.6-0.4l4.1-5c0.2-0.3,0.2-0.5-0.1-0.8l-0.6-0.5c-0.3-0.2-0.3-0.5-0.1-0.8l1.8-2.3c0.2-0.3,0.5-0.3,0.8-0.1
		l3.8,3.1c0.3,0.2,0.3,0.5,0,0.8l-8.3,10c-0.2,0.2-0.4,0.3-0.7,0.3l-2,0.2c-0.3,0.1-0.5,0-0.7-0.2L390.1,165.4z"/>
	<path class="st0" d="M410.4,183.4c-0.3,0.3-0.5,0.2-0.8,0l-7.2-7.4c-0.3-0.3-0.3-0.5,0-0.8l22-21.5c0.3-0.3,0.5-0.3,0.8,0l7.2,7.4
		c0.2,0.2,0.3,0.5,0,0.8l-2,2c-0.3,0.3-0.5,0.2-0.8,0l-4.5-4.6c-0.3-0.3-0.5-0.2-0.8,0l-6.3,6.2c-0.3,0.3-0.3,0.5,0,0.8l2,2.1
		c0.3,0.3,0.3,0.5,0,0.8l-2,2c-0.3,0.3-0.5,0.3-0.8,0l-2-2.1c-0.3-0.3-0.5-0.3-0.8,0l-6.3,6.2c-0.3,0.3-0.3,0.5,0,0.8l4.5,4.6
		c0.2,0.2,0.2,0.5,0,0.8L410.4,183.4z"/>
	<path class="st0" d="M438.4,168.8c0.3-0.2,0.5-0.2,0.8,0.1l5.6,7.1c0.2,0.2,0.2,0.4,0.2,0.7l-0.3,2c0,0.3-0.1,0.5-0.3,0.6
		l-21.3,16.7c-0.2,0.2-0.4,0.2-0.7,0.2l-2-0.2c-0.3,0-0.5-0.1-0.6-0.3l-5.6-7.1c-0.2-0.3-0.2-0.5,0.1-0.8L438.4,168.8z M419.9,188.5
		c-0.3,0.2-0.3,0.5-0.1,0.8l1.6,2c0.2,0.2,0.3,0.3,0.6,0.4c0.3,0,0.4-0.1,0.7-0.3l17.4-13.7c0.2-0.2,0.3-0.3,0.4-0.6
		c0-0.3,0-0.5-0.2-0.7l-1.6-2c-0.2-0.3-0.5-0.3-0.8-0.1L419.9,188.5z"/>
</g>
<g>
	<path class="st0" d="M294,418.4c0.3,0,0.4,0.1,0.4,0.4v5.6c0,0.3-0.1,0.4-0.4,0.4h-8.8c-0.3,0-0.4-0.1-0.4-0.4v-12.2
		c0-0.2,0.1-0.4,0.2-0.5l1.2-1.2c0.2-0.2,0.3-0.2,0.6-0.2h3.8c0.2,0,0.4,0,0.5-0.2c0.2-0.2,0.2-0.3,0.2-0.5v-6.7
		c0-0.2,0-0.4-0.2-0.5c-0.1-0.1-0.3-0.2-0.5-0.2h-1.8c-0.2,0-0.4,0-0.5,0.2c-0.2,0.1-0.2,0.3-0.2,0.5v2.1c0,0.3-0.1,0.4-0.4,0.4
		h-2.3c-0.3,0-0.4-0.1-0.4-0.4v-4.1c0-0.3,0.1-0.4,0.2-0.5l1.2-1.2c0.2-0.1,0.3-0.2,0.6-0.2h5.8c0.2,0,0.4,0.1,0.6,0.2l1.2,1.2
		c0.1,0.1,0.2,0.3,0.2,0.5v10.7c0,0.2-0.1,0.4-0.2,0.5l-1.2,1.2c-0.2,0.2-0.3,0.2-0.6,0.2h-3.8c-0.2,0-0.4,0-0.5,0.2
		c-0.2,0.2-0.2,0.3-0.2,0.5v6.9c0,0.3,0.2,0.4,0.4,0.4h2.4c0.3,0,0.4-0.1,0.4-0.4v-2.3c0-0.3,0.1-0.4,0.4-0.4H294z"/>
	<path class="st0" d="M307.8,398.9c0.2,0,0.4,0.1,0.5,0.2l1.2,1.2c0.2,0.1,0.2,0.3,0.2,0.5v22.1c0,0.2-0.1,0.4-0.2,0.5l-1.2,1.2
		c-0.1,0.2-0.3,0.2-0.5,0.2h-5.8c-0.2,0-0.4-0.1-0.5-0.2l-1.2-1.2c-0.2-0.1-0.2-0.3-0.2-0.5v-22.1c0-0.2,0.1-0.4,0.2-0.5l1.2-1.2
		c0.1-0.1,0.3-0.2,0.5-0.2H307.8z M306.4,402.9c0-0.2,0-0.4-0.2-0.5c-0.2-0.1-0.3-0.2-0.5-0.2h-1.8c-0.2,0-0.4,0-0.5,0.2
		c-0.1,0.1-0.2,0.3-0.2,0.5v18.1c0,0.2,0,0.4,0.2,0.5c0.2,0.1,0.3,0.2,0.5,0.2h1.8c0.2,0,0.4,0,0.5-0.2c0.1-0.2,0.2-0.3,0.2-0.5
		V402.9z"/>
	<path class="st0" d="M319.7,424.4c0,0.3-0.2,0.4-0.5,0.4h-2.4c-0.3,0-0.4-0.1-0.4-0.4v-21.1c0-0.3-0.2-0.4-0.4-0.4h-0.6
		c-0.3,0-0.4-0.2-0.4-0.5l0.9-3.1c0.1-0.3,0.2-0.4,0.5-0.4h2.8c0.3,0,0.5,0.1,0.5,0.4V424.4z"/>
	<path class="st0" d="M332.2,405.4c-0.3,0-0.4-0.1-0.4-0.4v-2.1c0-0.2,0-0.4-0.2-0.5c-0.1-0.1-0.3-0.2-0.5-0.2h-1.8
		c-0.2,0-0.4,0-0.5,0.2c-0.2,0.1-0.2,0.3-0.2,0.5v6.7c0,0.2,0,0.4,0.2,0.5c0.1,0.1,0.3,0.2,0.5,0.2h3.8c0.2,0,0.4,0.1,0.6,0.2
		l1.2,1.2c0.1,0.1,0.2,0.3,0.2,0.5v10.7c0,0.2-0.1,0.4-0.2,0.5l-1.2,1.2c-0.2,0.2-0.3,0.2-0.6,0.2h-5.8c-0.2,0-0.4-0.1-0.6-0.2
		l-1.2-1.2c-0.1-0.1-0.2-0.3-0.2-0.5v-22c0-0.3,0.1-0.4,0.2-0.5l1.2-1.2c0.2-0.1,0.3-0.2,0.6-0.2h5.8c0.2,0,0.4,0.1,0.6,0.2l1.2,1.2
		c0.1,0.1,0.2,0.3,0.2,0.5v4.1c0,0.3-0.1,0.4-0.4,0.4H332.2z M331.7,414.2c0-0.2,0-0.4-0.2-0.5c-0.1-0.1-0.3-0.2-0.5-0.2h-1.8
		c-0.2,0-0.4,0-0.5,0.2c-0.2,0.2-0.2,0.3-0.2,0.5v6.6c0,0.2,0,0.4,0.2,0.5c0.1,0.1,0.3,0.2,0.5,0.2h1.8c0.2,0,0.4,0,0.5-0.2
		c0.2-0.2,0.2-0.3,0.2-0.5V414.2z"/>
</g>
<path class="st0" d="M238.5,402v21.5h36.3V402H238.5z M249.3,406.5c0,0.2-0.1,0.2-0.2,0.2h-2.8c-0.2,0-0.2,0.1-0.2,0.3v3.9
	c0,0.2,0.1,0.2,0.2,0.2h1.3c0.2,0,0.2,0.1,0.2,0.2v1.3c0,0.2-0.1,0.3-0.2,0.3h-1.3c-0.2,0-0.2,0.1-0.2,0.2v3.9
	c0,0.2,0.1,0.2,0.2,0.2h2.8c0.1,0,0.2,0.1,0.2,0.2v1.3c0,0.2-0.1,0.2-0.2,0.2h-4.6c-0.2,0-0.2-0.1-0.2-0.2v-13.6
	c0-0.2,0.1-0.2,0.2-0.2h4.6c0.1,0,0.2,0.1,0.2,0.2V406.5z M257.3,408.3c0,0.2-0.1,0.2-0.3,0.2h-1.3c-0.2,0-0.2-0.1-0.2-0.2v-1.1
	c0-0.1,0-0.2-0.1-0.3c-0.1-0.1-0.1-0.1-0.3-0.1h-1c-0.1,0-0.2,0-0.3,0.1c-0.1,0.1-0.1,0.2-0.1,0.3v3.6c0,0.1,0,0.2,0.1,0.3
	c0.1,0.1,0.2,0.1,0.3,0.1h2.1c0.1,0,0.2,0,0.3,0.1l0.6,0.6c0.1,0.1,0.1,0.2,0.1,0.3v5.8c0,0.1-0.1,0.2-0.1,0.3l-0.6,0.6
	c-0.1,0.1-0.2,0.1-0.3,0.1h-3.2c-0.1,0-0.2,0-0.3-0.1l-0.6-0.6c-0.1-0.1-0.1-0.2-0.1-0.3v-2.2c0-0.2,0.1-0.2,0.2-0.2h1.3
	c0.2,0,0.2,0.1,0.2,0.2v1.1c0,0.1,0,0.2,0.1,0.3c0.1,0.1,0.2,0.1,0.3,0.1h1c0.1,0,0.2,0,0.3-0.1c0.1-0.1,0.1-0.2,0.1-0.3v-3.6
	c0-0.1,0-0.2-0.1-0.3c-0.1-0.1-0.1-0.1-0.3-0.1h-2.1c-0.1,0-0.2,0-0.3-0.1l-0.6-0.6c-0.1-0.1-0.1-0.2-0.1-0.3V406
	c0-0.1,0-0.2,0.1-0.3l0.6-0.7c0.1-0.1,0.2-0.1,0.3-0.1h3.2c0.1,0,0.2,0,0.3,0.1l0.6,0.7c0.1,0.1,0.1,0.2,0.1,0.3V408.3z
	 M265.5,406.5c0,0.2-0.1,0.3-0.3,0.3h-1.5c-0.2,0-0.2,0.1-0.2,0.2v11.8c0,0.2-0.1,0.2-0.2,0.2h-1.3c-0.2,0-0.3-0.1-0.3-0.2V407
	c0-0.2-0.1-0.2-0.2-0.2h-1.5c-0.2,0-0.2-0.1-0.2-0.3v-1.3c0-0.2,0.1-0.2,0.2-0.2h5.2c0.2,0,0.3,0.1,0.3,0.2V406.5z M269.5,418.3
	c0,0.1-0.1,0.2-0.1,0.3L269,419c-0.1,0.1-0.2,0.1-0.3,0.1h-0.9c-0.1,0-0.2,0-0.3-0.1l-0.4-0.4c-0.1-0.1-0.1-0.2-0.1-0.3v-0.9
	c0-0.1,0-0.2,0.1-0.3l0.4-0.4c0.1-0.1,0.2-0.1,0.3-0.1h0.9c0.1,0,0.2,0,0.3,0.1l0.4,0.4c0.1,0.1,0.1,0.2,0.1,0.3V418.3z"/>
<g>
	<path class="st0" d="M266.5,206.7v-7.2c0-1.8,0-3.5,0-5.2c0-1.7,0-3.4,0-5.2l-2.6,17.5h-1.9l-2.6-17.5c0,1.8,0,3.5,0,5.2
		c0,1.7,0,3.4,0,5.2v7.2h-2v-23.9h3l2.5,18.6l2.5-18.6h3v23.9H266.5z"/>
	<path class="st0" d="M278.2,206.7l-0.5-4h-3.6l-0.5,4h-2.1l3.3-23.9h2.6l3.1,23.9H278.2z M277.4,200.7c-0.3-2-0.5-4.1-0.8-6.1
		c-0.3-2-0.5-4.1-0.7-6.2c-0.3,2.1-0.5,4.2-0.8,6.2c-0.3,2-0.5,4-0.8,6.1H277.4z"/>
	<path class="st0" d="M283.3,206.7v-23.9h2.2v21.7h4.3v2.2H283.3z"/>
	<path class="st0" d="M301.5,206.7v-7.2c0-1.8,0-3.5,0-5.2s0-3.4,0-5.2l-2.6,17.5H297l-2.6-17.5c0,1.8,0,3.5,0,5.2
		c0,1.7,0,3.4,0,5.2v7.2h-2v-23.9h3l2.5,18.6l2.5-18.6h3v23.9H301.5z"/>
	<path class="st0" d="M306.9,186.6c0-2.7,1.2-4.1,3.7-4.1c2.5,0,3.8,1.4,3.8,4.1v16.3c0,2.7-1.3,4.1-3.8,4.1c-2.5,0-3.7-1.4-3.7-4.1
		V186.6z M307.5,181.4v-3.6h2v3.6H307.5z M312.2,186.6c0-1.2-0.5-1.8-1.6-1.8c-1,0-1.5,0.6-1.5,1.8v16.3c0,1.3,0.5,1.9,1.5,1.9
		c1,0,1.6-0.6,1.6-1.9V186.6z M311.9,181.4v-3.6h2v3.6H311.9z"/>
</g>
</svg>
